<?xml version="1.0" encoding="utf-8"?>
<!-- Generator: Adobe Illustrator 27.1.1, SVG Export Plug-In . SVG Version: 6.00 Build 0)  -->
<svg version="1.1" xmlns="http://www.w3.org/2000/svg" xmlns:xlink="http://www.w3.org/1999/xlink" x="0px" y="0px"
	 viewBox="0 0 226.77 226.77" style="enable-background:new 0 0 226.77 226.77;" xml:space="preserve">
<style type="text/css">
	.st0{fill:#013A2F;}
	.st1{fill:#FFFFFF;}
	.st2{fill:#C50077;}
</style>
<g id="Ebene_2">
</g>
<g id="Ebene_1">
	<circle class="st0" cx="113.39" cy="113.39" r="113.39"/>
	<g>
		<g>
			<path class="st1" d="M43.27,121.7c1.23,0,2.27-0.11,3.12-0.32c0.85-0.21,1.59-0.51,2.2-0.88l1.12,4.01
				c-0.64,0.37-1.55,0.71-2.72,1c-1.18,0.29-2.6,0.44-4.29,0.44c-1.9,0-3.65-0.3-5.25-0.9c-1.6-0.6-2.98-1.47-4.15-2.6
				c-1.16-1.13-2.06-2.51-2.7-4.13c-0.64-1.62-0.96-3.44-0.96-5.47c0-1.98,0.31-3.77,0.94-5.37c0.63-1.6,1.51-2.97,2.64-4.11
				c1.13-1.13,2.52-2.01,4.15-2.62c1.63-0.61,3.45-0.92,5.45-0.92c1.71,0,3.12,0.16,4.23,0.48c1.11,0.32,2.01,0.67,2.7,1.04
				l-1.24,4.05c-0.69-0.37-1.46-0.69-2.3-0.94c-0.84-0.25-1.78-0.38-2.82-0.38c-1.1,0-2.12,0.16-3.08,0.48
				c-0.96,0.32-1.8,0.84-2.52,1.54c-0.72,0.71-1.29,1.62-1.7,2.72c-0.41,1.11-0.62,2.45-0.62,4.03c0,1.52,0.2,2.84,0.6,3.95
				c0.4,1.11,0.95,2.02,1.66,2.74c0.71,0.72,1.54,1.26,2.48,1.62C41.15,121.52,42.17,121.7,43.27,121.7z M64.06,99.82
				c1.79,0,3.45,0.29,4.97,0.88c1.52,0.59,2.83,1.44,3.93,2.54c1.1,1.11,1.96,2.48,2.58,4.11c0.63,1.63,0.94,3.49,0.94,5.57
				c0,2.03-0.32,3.85-0.96,5.45c-0.64,1.6-1.52,2.96-2.64,4.09s-2.45,1.98-3.99,2.58c-1.54,0.6-3.2,0.9-4.99,0.9
				c-1.79,0-3.45-0.29-4.97-0.86c-1.52-0.57-2.83-1.42-3.93-2.52c-1.1-1.11-1.96-2.47-2.58-4.09c-0.63-1.62-0.94-3.47-0.94-5.55
				c0-2.03,0.32-3.85,0.96-5.47c0.64-1.62,1.52-2.99,2.64-4.13c1.12-1.13,2.45-2,3.99-2.6C60.61,100.12,62.27,99.82,64.06,99.82z
				 M57.29,112.92c0,1.5,0.18,2.8,0.54,3.91c0.36,1.11,0.85,2.03,1.46,2.76c0.61,0.73,1.33,1.28,2.14,1.64
				c0.81,0.36,1.69,0.54,2.62,0.54c0.91,0,1.77-0.18,2.58-0.54c0.81-0.36,1.52-0.91,2.1-1.64c0.59-0.73,1.05-1.66,1.4-2.76
				c0.35-1.11,0.52-2.41,0.52-3.91c0-1.55-0.18-2.88-0.54-4.01c-0.36-1.12-0.85-2.05-1.46-2.78c-0.61-0.73-1.33-1.28-2.14-1.62
				c-0.81-0.35-1.69-0.52-2.62-0.52c-0.94,0-1.8,0.19-2.6,0.56c-0.8,0.37-1.5,0.93-2.08,1.66c-0.59,0.73-1.06,1.66-1.4,2.78
				C57.46,110.12,57.29,111.43,57.29,112.92z M80.35,100.26h5.49v20.91h10.18v4.33H80.35V100.26z M99.1,100.26h16.43v4.25h-10.94
				v5.77h9.9v4.21h-9.9v6.77h11.06v4.25H99.1V100.26z M119.82,100.26h5.49v20.91h10.18v4.33h-15.66V100.26z M138.56,100.26h5.49
				v20.91h10.18v4.33h-15.66V100.26z"/>
		</g>
		<g>
			<path class="st1" d="M71.06,164.54c1.23,0,2.27-0.11,3.12-0.32c0.85-0.21,1.59-0.51,2.2-0.88l1.12,4.01
				c-0.64,0.37-1.55,0.71-2.72,1c-1.18,0.29-2.6,0.44-4.29,0.44c-1.9,0-3.65-0.3-5.25-0.9c-1.6-0.6-2.98-1.47-4.15-2.6
				c-1.16-1.13-2.06-2.51-2.7-4.13c-0.64-1.62-0.96-3.44-0.96-5.47c0-1.98,0.31-3.77,0.94-5.37c0.63-1.6,1.51-2.97,2.64-4.11
				c1.13-1.13,2.52-2.01,4.15-2.62c1.63-0.61,3.45-0.92,5.45-0.92c1.71,0,3.12,0.16,4.23,0.48c1.11,0.32,2.01,0.67,2.7,1.04
				l-1.24,4.05c-0.69-0.37-1.46-0.69-2.3-0.94c-0.84-0.25-1.78-0.38-2.82-0.38c-1.1,0-2.12,0.16-3.08,0.48
				c-0.96,0.32-1.8,0.84-2.52,1.54c-0.72,0.71-1.29,1.62-1.7,2.72c-0.41,1.11-0.62,2.45-0.62,4.03c0,1.52,0.2,2.84,0.6,3.95
				c0.4,1.11,0.95,2.02,1.66,2.74c0.71,0.72,1.54,1.26,2.48,1.62C68.94,164.36,69.96,164.54,71.06,164.54z M63,135.42h4.13l2.56,2.8
				l2.6-2.8h3.97l-4.61,5.09h-3.97L63,135.42z M88.56,143.11h5.69l9.34,25.24h-5.81l-1.96-5.81h-8.97l-1.96,5.81h-5.73L88.56,143.11
				z M88.08,158.49h6.41l-1.16-3.37c-0.37-1.04-0.72-2.09-1.04-3.15c-0.32-1.05-0.63-2.12-0.92-3.19h-0.08
				c-0.29,1.02-0.61,2.05-0.96,3.1c-0.35,1.06-0.71,2.13-1.08,3.23L88.08,158.49z M106.79,168.35v-25.24h5.49v10.62l8.69-10.62h6.81
				l-9.41,11.02l10.22,14.22h-6.77l-7.45-10.78l-2.08,2.2v8.57H106.79z M138.44,143.11h5.69l9.34,25.24h-5.81l-1.96-5.81h-8.97
				l-1.96,5.81h-5.73L138.44,143.11z M137.96,158.49h6.41l-1.16-3.37c-0.37-1.04-0.72-2.09-1.04-3.15
				c-0.32-1.05-0.63-2.12-0.92-3.19h-0.08c-0.29,1.02-0.61,2.05-0.96,3.1c-0.35,1.06-0.71,2.13-1.08,3.23L137.96,158.49z
				 M156.67,143.11h9.58c1.42,0,2.66,0.21,3.75,0.62c1.08,0.41,1.98,0.98,2.7,1.68c0.72,0.71,1.26,1.54,1.62,2.48
				c0.36,0.95,0.54,1.97,0.54,3.06c0,1.02-0.15,1.92-0.46,2.7c-0.31,0.79-0.69,1.47-1.16,2.04c-0.47,0.57-0.99,1.06-1.56,1.44
				c-0.57,0.39-1.13,0.7-1.66,0.94l6.17,10.26h-6.29l-4.85-9.29h-2.92v9.29h-5.45V143.11z M162.12,154.85h2.16
				c1.44,0,2.62-0.29,3.55-0.88c0.92-0.59,1.38-1.56,1.38-2.92c0-1.2-0.37-2.13-1.1-2.78c-0.74-0.65-1.81-0.98-3.23-0.98h-2.76
				V154.85z"/>
			<path class="st2" d="M50.32,162.46c0.45-0.67,0.96-1.56,1.52-2.66c0.56-1.11,1.04-2.22,1.44-3.35l-3.97-1.6
				c-0.24,0.8-0.55,1.62-0.92,2.44c-0.37,0.83-0.72,1.55-1.04,2.16l-6.37-6.53c-1.02-1.07-1.78-2-2.28-2.78
				c-0.51-0.79-0.76-1.62-0.76-2.5c0-0.75,0.21-1.36,0.64-1.84c0.43-0.48,1.08-0.72,1.96-0.72c0.72,0,1.34,0.25,1.84,0.74
				c0.51,0.49,0.76,1.1,0.76,1.82c0,0.69-0.17,1.3-0.5,1.8c-0.33,0.51-0.76,0.91-1.26,1.2l2.52,2.6c1.07-0.53,1.99-1.27,2.76-2.2
				c0.77-0.93,1.16-2.07,1.16-3.41c0-0.88-0.19-1.7-0.56-2.46c-0.37-0.76-0.88-1.41-1.52-1.94c-0.64-0.53-1.4-0.95-2.28-1.26
				c-0.88-0.31-1.83-0.46-2.84-0.46c-2.32,0-4.16,0.57-5.51,1.7c-1.35,1.14-2.02,2.68-2.02,4.63c0,1.04,0.25,2.03,0.74,2.96
				c0.49,0.94,1.05,1.72,1.66,2.36c-2.08,0.96-3.58,2.08-4.49,3.35c-0.91,1.27-1.36,2.72-1.36,4.35c0,2.43,0.84,4.35,2.52,5.77
				c1.68,1.42,4.02,2.12,7.01,2.12c1.98,0,3.64-0.31,4.99-0.92c0.64-0.29,1.22-0.6,1.72-0.93l-2.79-2.87
				c-0.12,0.07-0.24,0.13-0.37,0.2c-0.82,0.4-1.78,0.6-2.9,0.6c-1.52,0-2.75-0.35-3.69-1.04c-0.94-0.69-1.4-1.74-1.4-3.13
				c0-1.2,0.31-2.17,0.94-2.9c0.63-0.73,1.37-1.3,2.22-1.7l6.51,6.71l3.3,3.39l2.17,2.2h6.17L50.32,162.46z"/>
		</g>
	</g>
</g>
</svg>
