<?xml version="1.0" encoding="UTF-8"?>
<svg id="Ebene_2" data-name="Ebene 2" xmlns="http://www.w3.org/2000/svg" viewBox="0 0 236.23 240.02">
  <defs>
    <style>
      .cls-1 {
        fill: #184c42;
      }

      .cls-1, .cls-2, .cls-3, .cls-4 {
        stroke-width: 0px;
      }

      .cls-2 {
        fill: #c50077;
      }

      .cls-3 {
        fill: #fff;
      }

      .cls-4 {
        fill: #013a2f;
      }
    </style>
  </defs>
  <g id="Ebene_1-2" data-name="Ebene 1">
    <g>
      <g>
        <circle class="cls-4" cx="116.35" cy="125.34" r="113.39"/>
        <g>
          <path class="cls-1" d="m117.19,9.54c1.07.03.69-.39.86-.47-1.8.11-.81.57-.86.47Z"/>
          <polygon class="cls-1" points="99.65 11.69 99.93 11.47 97.44 12.3 99.65 11.69"/>
          <path class="cls-1" d="m83.59,15.2c1.7.29,5.7-1.74,8.65-2.03l.51.06,1.18-.84c-1.73.44-3.73.92-5.56,1.5-1.83.58-3.54,1.07-4.78,1.32Z"/>
          <path class="cls-1" d="m74.74,16.6c.61.07-1.71.9,1.97-.65-.2.04-.26.05-.38.07-.33.13-.8.3-1.59.58Z"/>
          <path class="cls-1" d="m76.34,16.02c1.64-.64-1.16.19,0,0h0Z"/>
          <path class="cls-1" d="m68.89,19.22l2.02-1.15c-.51.04-2.42.83-1.76.42-2.13,1.07-1.61,1.02-.26.73Z"/>
          <path class="cls-1" d="m67.12,20.59c.34-.21.68-.41,1.04-.6-.22.02-.52.12-1.04.6Z"/>
          <path class="cls-1" d="m70.39,18.78l-2.23,1.21c.35-.03.48.17,1.03-.54-.1.28.27-.11,1.2-.68Z"/>
          <path class="cls-1" d="m71.75,18.31c1.24-.39,2.84-.87.79.2,2.02-.86,2.85-1.3,2.65-1.37-.19-.04-1.44.24-3.44,1.17Z"/>
          <path class="cls-1" d="m83.01,16.16c.56-.11,1.12-.22,1.69-.29l1.35-.61c-.34.15-1.14.32-1.84.47-.7.16-1.28.35-1.2.43Z"/>
          <path class="cls-1" d="m55.97,25.58c-.04.21.87-.06,1.12.01.45-.36.92-.68,1.39-1.01-.83.31-2.28,1.13-2.5.99Z"/>
          <path class="cls-1" d="m57.09,25.59l-2.03,1.56c1.94-1.17,2.23-1.5,2.03-1.56Z"/>
          <path class="cls-1" d="m67.09,21.49c1.15-.81,2.37-1.46,3.56-2.2-1.45.83-2.89,1.64-4.28,2.56l.71-.36Z"/>
          <path class="cls-1" d="m47.81,30.96c.32-.38.66-.74.99-1.12-.62.62-1.21,1.27-1.78,1.95l.79-.83Z"/>
          <path class="cls-1" d="m42.72,34.98c.64-.92-1.44.57-.68-.3-1.32,1.19-2.33,2.33-3.19,3.4.99-1.05,2.21-2,3.88-3.1Z"/>
          <path class="cls-1" d="m37.4,39.86c.48-.54.94-1.14,1.45-1.79-.52.57-1,1.15-1.45,1.79Z"/>
          <path class="cls-1" d="m51.39,29.45c-.21.04-.66.05-1.9.78l1.07-.22c.25-.17.54-.37.83-.56Z"/>
          <path class="cls-1" d="m50.6,30.01h-.04c-.9.62-1.53,1.04-1.79,1.22.23-.15.78-.52,1.83-1.22Z"/>
          <path class="cls-1" d="m51.6,29.31c-.08.05-.13.09-.21.14.1-.02.16-.04.21-.14Z"/>
          <path class="cls-1" d="m61.02,24.17c-1.19.93-3.75,2.65-.96,1.52.78-.77-.82-.12.96-1.52Z"/>
          <path class="cls-1" d="m52.92,29.05c.76-.48,1.55-.9,2.32-1.35-.1-.07-.61.05-.04-.44-.76.6-1.54,1.17-2.28,1.79Z"/>
          <polygon class="cls-1" points="51.91 29.91 52.92 29.05 52.08 29.59 51.91 29.91"/>
          <path class="cls-1" d="m41.13,37.07c-.39.45-.82.88-1.29,1.32-.46.45-.95.92-1.47,1.43,1.17-1.01,2.42-2,3.59-2.97.08-.24.43-.85-.83.22Z"/>
          <path class="cls-1" d="m45.67,33.55c-.06.05-.14.13-.19.18.15-.07.26-.14.19-.18Z"/>
          <path class="cls-1" d="m28.49,49.97c.07-.04.14-.08.21-.12,0-.03-.02-.05-.02-.09l-.19.21Z"/>
          <path class="cls-1" d="m42.21,36.74c.94-.68,1.4-1.21,1.83-1.74-.64.59-1.32,1.2-2.07,1.84-.03.11-.02.15.25-.11Z"/>
          <path class="cls-1" d="m34.66,42.74c.48-.37,1.02-.81,1.61-1.24-.54.29-1.54,1-1.61,1.24Z"/>
          <path class="cls-1" d="m45.09,33.87s.08-.08.13-.12c-.36.16-.29.17-.13.12Z"/>
          <path class="cls-1" d="m45.09,33.87c-.44.41-.75.78-1.06,1.14.54-.46,1.03-.89,1.45-1.28-.13.06-.28.11-.38.14Z"/>
          <path class="cls-1" d="m27.91,55c-.09-.2.26-.94.88-1.85.31-.45.68-.95,1.12-1.44.45-.47.94-.93,1.44-1.35,1.47-2.09-.59-1.74-2.65-.52.09.18.16.25-1.32,2.47.7-.63,4.22-4.11,3.01-2.21-1.1,1.36-1.56,1.9-1.93,2.23-.38.33-.65.44-1.27,1.04.65-.41.09.57-.5,1.63-.61,1.04-1.13,2.23-.63,2.14.51-.88,1.1-1.7,1.67-2.54.12.03-.43.99.18.4Z"/>
          <path class="cls-1" d="m32.12,46.1l.73-.82c-.94.83-1.65,1.4-2.97,2.43-1.08,1.5-1.22,1.87-1.2,2.05,1.22-1.32,2.4-2.69,3.66-3.97l-.22.31Z"/>
          <path class="cls-1" d="m36.33,41.8c-.36.87-2.02,2.9-.58,2.08,2.25-2.26,1.37-1.8,2.63-3.25-3.72,3.59.93-1.19-1.99,1.18.7-.75,1.36-1.39,1.98-1.99-.72.6-1.43,1.16-2.11,1.68.04-.02.07-.04.11-.06l.02-.02h0c.2-.11.28-.13.07.02,0,.02-.05.06-.07.08.02.07-.02.17-.06.28-1.17.96-.25.08.06-.28,0-.03.01-.07,0-.09h-.02c-1.23,1.23-2.34,2.58-3.52,3.86.83-.73,1.74-1.76,3.48-3.49Z"/>
          <path class="cls-1" d="m58.16,27.85c-.15.05-.16.02-.19,0-.25.22-.34.32.19,0Z"/>
          <path class="cls-1" d="m56.23,28.74c.28-.25.46-.56,1.51-1.16.96-.44.1.18.22.27.55-.49,2.03-1.58-.04-.58l-.28.24c-1.83.96-4.39,1.92-4.11,1.68.73,0,1.33-.05,2.7-.45Z"/>
          <path class="cls-1" d="m45.93,34.9c-1.11.9-2.15,1.9-3.2,2.87l1.91-1.11-.23-.1c1.95-1.46,1.39-1.32,1.52-1.65Z"/>
          <path class="cls-1" d="m27.99,50.21l.04-.73c-.41.75-.74,1.57-1.11,2.35l1.08-1.62Z"/>
          <path class="cls-1" d="m24.48,54.62l-.18-.4c-.25.44-.47.9-.7,1.34l.88-.94Z"/>
          <path class="cls-1" d="m171.5,221.67l1.01-.69c-.48.32-.79.52-1.01.69Z"/>
          <path class="cls-1" d="m163.65,225.74l-.11.27c.32-.28.44-.42.11-.27Z"/>
          <path class="cls-1" d="m16.93,184.86c.66,1.77,1.28,3.85,1.54,3.42l.06-.72c-.75-1.06-1.24-1.93-1.6-2.7Z"/>
          <path class="cls-1" d="m92.44,236.08c-.16-.07-.33-.15-.49-.23-.46.04-.89.08-1.28.11.54.03,1.13.11,1.78.12Z"/>
          <path class="cls-1" d="m94.05,234.56l2.26.72c-.5-.2-1.23-.43-2.26-.72Z"/>
          <path class="cls-1" d="m206.6,189.17c.16-.47.32-.93.45-1.41-1.26,1.82-.54,1.14-.45,1.41Z"/>
          <path class="cls-1" d="m2.02,107.18c-.39,1.56-.64,2.82-.82,3.92.52-1.89,1.11-3.36.82-3.92Z"/>
          <path class="cls-1" d="m170.62,227.43c.64-.45.89-.69.83-.76-.66.45-1.02.75-.83.76Z"/>
          <path class="cls-1" d="m.75,115.72c.06-.28.12-.55.18-.84.05-1.17.05-2.36.27-3.78-.38,1.39-.6,3.02-.45,4.61Z"/>
          <path class="cls-1" d="m179.71,34.3c-.1-.08-.21-.18-.3-.26-.07.03.08.13.3.26Z"/>
          <path class="cls-1" d="m133.38,11.33c.52.05,1.36.17,2.16.27-.38-.08-1.03-.17-2.16-.27Z"/>
          <path class="cls-1" d="m12.3,73.76c.51-1.08.03-.2,0,0h0Z"/>
          <path class="cls-1" d="m16.51,69.45c-.08.25-.11.44-.04.52-.05-.14-.03-.31.04-.52Z"/>
          <path class="cls-1" d="m3.08,127.58s0,.06,0,.1c.08-.35.07-.29,0-.1Z"/>
          <path class="cls-1" d="m13.3,72.25c-.26.37-.54.81-.83,1.3.14-.21.4-.6.83-1.3Z"/>
          <path class="cls-1" d="m13.01,72.37c.21-.36.37-.64.53-.91,0-.17-.1-.07-.53.91Z"/>
          <path class="cls-1" d="m11.61,75.28c.29-.62.58-1.19.87-1.74-.13.2-.19.28-.18.21-.15.32-.35.77-.69,1.52Z"/>
          <path class="cls-1" d="m227.63,112.25c0-.08,0-.17.01-.25-.31-1.14-.22-.63-.01.25Z"/>
          <path class="cls-1" d="m39.42,205.84s-.07-.05-.11-.08c.04.04.08.09.11.13v-.05Z"/>
          <path class="cls-1" d="m42.68,208.39c-1.66-.77-2.4-1.46-3.26-2.5.04.62.07,1.25.13,1.87l3.13.63Z"/>
          <path class="cls-1" d="m188.68,209.35l-2.46,1.56c2.26-2.72,4.28-4.17,1.88-2.85.15.32-.31.94-1.07,1.7-.76.76-1.8,1.7-2.91,2.54-1.1.86-2.2,1.72-2.99,2.45-.82.69-1.34,1.26-1.23,1.59l-1.73.84c.46-.3.48-.41.93-.71-3.39,1.57-1.73,2.36-5.9,4.75-1.49.77-2.62,1.13-1.7.45l-3.08,2.1c-.96.49-.84.16.12-.33-1.64.93-3.34,1.75-5.01,2.64l.02-.05c-.63.56-2.19,1.56-2.96,2.06-1.4.4.61-.42.2-.43-.92.51-1.83,1.06-2.77,1.54-.67.06-.42-.21.25-.6.65-.42,1.72-.96,2.72-1.37-1.61-.04-2.16.3-3.09.86-.94.51-2.26,1.28-5.36,1.99.91-.36,1.8-.79,2.71-1.19-1.03-.04-2.03.26-3.22.55-1.19.29-2.54.67-4.18.95.8,0,6.7-.89,3.58.47-.95.19-2.15.55-3.83,1.35-.15-.46-1.85.12-4,.72v-.66c-1.15.42-1.66.65-2.05.87-.39.23-.66.44-1.32.73-2.66.51-3.29.15-3.99-.18-4.26.59,3.08.3-1.94,1.24-.9.08-1.72.19-2.52.32-.8.1-1.58.2-2.38.33-1.6.26-3.28.65-5.42.94-2.53-.07.42-.42-.5-.54l-2.2.65c-.55.02-.38-.15-.29-.23-1.88.27-.13.65-3.1.87-.4.34-1.94.15-3.82-.14-1.88-.34-4.1-.6-5.97-.36-.89-.26.46-.35.21-.62-2.53.03-3.61.05-4.59.06-.98.02-1.83.01-3.95.08-1.15-.3-2.3-.6-3.43-.98,2.47.97-.88.9-3.88.79.87.4,1.61.76,2.12.95-1.57-.18-3.14-.36-4.7-.66-.53-.24-.01-.34.79-.41-.32-.02-.63-.04-.87-.06-1.58-.63-.64-.78.61-.84.52.27,1.04.53,1.55.79,1.22-.16,2.36-.38,2.2-.79-.31.01-.9-.03-1.53-.12.32-.05.52-.1.4-.19-.14-.1-.65-.03-1.42-.06l-.86-.95-.31.21c-1.93-.62-3.85-1.23-5.73-1.99-1.09-.12-2.15-.24-3.24-.36-1.07-.16-2.18-.33-3.36-.55-.59-.11-1.2-.23-1.83-.35-.63-.14-1.27-.33-1.95-.52-1.35-.41-2.85-.83-4.46-1.51,1.78.26.68-.62,1.02-1.15.72.7,2,1.12,3.48,1.59.74.23,1.53.47,2.35.72.83.23,1.67.49,2.5.82-1.73-.69-1.24-.83-.76-.77-2.08-.47-4.08-1.16-6.13-1.77.33-.4-1.1-.85-2.5-1.77.36.72-.78.37-2.33-.27-.78-.3-1.64-.72-2.45-1.13-.82-.4-1.6-.77-2.21-1.01.02-.37.73-.38,3.48,1.17-2.7-2.32-4.58-1.01-7.2-3.37.67.39,1,.65,1.35.66-.85-.33-2.2-1.12-3.2-1.78-1-.67-1.61-1.28-1.1-1.11l.65.42c-1.05-.73-2.39-1.64-3.82-2.58-1.41-.98-2.89-2.02-4.27-2.98-2.71-1.97-5.05-3.57-5.61-3.52.03-.11,1.17-.33,1.52-.28-2.91-1.26-5.87-2.59-8.73-4.13,1.09.04.11-3.35,3.43-.68-.4-.46-.84-.98-1.44-1.58-.59-.61-1.36-1.27-2.31-2.14.48.68.66,2.25-.17,1.47-1.52-2.87-1.2-1.87-3.23-5.22.68,1.06-1.07.75-2.33-.8.33.13.76-.85,1.32-.38l-2.01-1.52c-.67-.51-1.3-1.07-1.95-1.6.91.86.88-.42.47-1.47.07.27-.57-.58-1.33-1.61-.74-1.05-1.55-2.32-1.97-2.82l.96,1.86c-1.49-2.34-2.64-3.2-3.68-4.17-.53-.47-1.07-.94-1.66-1.6-.58-.66-1.24-1.47-1.89-2.71.53.48,2.04.72.8-1.79-1.13-.8-5.22-3.68-7.63-8.11l-.08-1.01c-.62-1.12-1.27-2.23-1.81-3.39.79.98,2.35,2.78,3.89,4.71.75.97,1.63,1.92,2.38,2.83.77.91,1.45,1.76,2.02,2.47-.7-1.96.09-.69-1.31-3.44-.2-1.11,1.16,1.3,1.58,2.1-1-2.17-2.02-4.32-2.87-6.55-.24.28-.95-.91-1.64-2.11-.64-1.23-1.25-2.48-1.47-2.25,1.09,2.39,2.42,4.65,3.64,6.95-.24.29-1.12-.55-2.2-2.07-.52-.76-1.15-1.68-1.66-2.74-.52-1.06-1.02-2.24-1.45-3.46-.21-1.32,1.47.51,1.64.33-.21-.27-.79-1.35-1.2-2.47-.42-1.11-.79-2.22-.78-2.47l1.01,1.95c-.31-1.39-.88-2.42-1.43-3.54-.53-1.12-.96-2.37-1.1-4.1-.3-1.15.01-3.61-.41-3.72-.35,2.03-2.57,3-3.41,1.83-.02-.21-.16-1.81-.32-3.53-.17-1.71-.12-3.57-.07-4.27.28-2.03,1.89,2.68,2.13.94-.19-.04-.59-1.06-.73-1.5-.05-1.25.65.42.13-2.23-.74-.35-.56-5.47-.72-1.19-.24-1.31-.29-2.01-.32-2.77-.02-.76-.07-1.58-.16-3.13-.19.51-.61-.16-1.02-1.3-.4-1.14-.87-2.75-.95-4.1.18.15.39-.46.49-.75,0-1.37.02-2.58.04-3.71.06-1.13.16-2.16.24-3.19.08-1.03.17-2.04.25-3.11.13-1.07.25-2.21.37-3.47.2-.46.64-2.87.82-1.8-.02-.74-.15-1.43.05-2.99,1.01-2.91-.4,3.47.63,1.28-.34-.24-.04-4.09.21-6.31-.35.28-.68,1.54-.81,3.03-.13,1.49-.18,3.17-.22,4.3-.42-.05-.71-1.06-.85-2.75-.06-.84-.12-1.86-.07-3,.07-1.13.18-2.4.34-3.74.29-2.14.6-2.55.73-2.54.15.01.2.46.23.08.52-1.94.79-3.35.94-4.48.2-1.11.28-1.94.35-2.73.07-.79.15-1.53.37-2.47.21-.94.66-2.05,1.35-3.59,1.4-2.33,1.04.25,1.61-.17-.48,1.67-1.02,2.89-1.5,3.99-.45,1.11-.87,2.08-1.2,3.22l1.08-2.71c-.15,1.11-.68,3.37-1.19,4.53.28-.5.66-1.55,1.12-2.94.22-.7.47-1.48.74-2.31.3-.82.62-1.7.95-2.61.33-.91.65-1.85,1.02-2.78.39-.92.78-1.84,1.17-2.74.74-1.81,1.6-3.46,2.36-4.8.3-1.06.94-2.86.36-2.14l-.76,1.8c-1.16,1.45,1.03-3.6-.21-1.44.39-1.27.93-2.57,1.53-4,.31-.71.64-1.44,1.03-2.19.42-.73.89-1.49,1.41-2.26l.88-.29c-.19-.03-1.56,1.9-1.92,2.9.27-.74,1.18-1.86,2.04-3.02.43-.58.84-1.18,1.17-1.74.35-.55.6-1.07.66-1.54-.59.65-1.22,1.28-1.77,1.97.54-1.23,1.2-2.57,1.91-3.99.7-1.43,1.59-2.83,2.66-4.11-1.38.87-.4.65-2.37,2.17,1.85-1.22-4.73,7.11-2.14,4.85-.98.81-1.58,1.68-2.23,2.63-.65.95-1.35,1.97-2.38,3.23.22,0,.87-.81-.53,1.62,0,.14-.08.44-.13.63-.05.07-.06.1-.1.16.03-.05.06-.08.09-.13-.03.12-.03.13.03-.05.39-.55.74-.98.94-1.12-.11.73-.72,2.05-1.29,3.4-.55,1.36-1.13,2.73-1.33,3.45-.79,1.45.08-.72-.5,0-.22.72-.41,1.45-.57,2.19-.49.02-2.36,3.79-1.12.06l-1.36,3.25c-.97,1.85-2.02,4.53-2.4,6.26-.57,1.57-.73,4.17-.65,2.68-.22.9-.45,1.79-.65,2.69l-.53,2.72-.12.02c-.74,2.63-1.02,5.44-1.49,8.29-.31,2.88-.81,5.82-1.43,8.9-.02.92-.05,1.85-.11,2.94-.01,1.09-.06,2.32-.18,3.85l-.41.59c-.01,1.18-.06,2.95-.11,4.56-.04,1.61-.07,3.05.19,3.55-.22.65-.3,1.69-.3,2.96,0,.63.03,1.32.06,2.04.05.72.16,1.47.25,2.24.21,1.53.39,3.11.66,4.55.27,1.44.5,2.76.62,3.8l.52.07c.18,1.42.58,2.77.93,4.21.19.72.39,1.46.59,2.23.23.77.5,1.56.78,2.4l.38-.32c.59,1.42.95,3.34,1.54,5.43.28,1.05.57,2.16.87,3.3.34,1.12.75,2.25,1.18,3.38-.28-.25-.67-1.41-.87-2.25.27,1.43.72,2.85,1.26,4.24.58,1.38,1.29,2.71,1.98,4.03.66,1.33,1.46,2.58,2.12,3.83.67,1.25,1.23,2.51,1.73,3.72.77,1.06,1.18,1.91,1.53,2.76-.06-.11-.12-.2-.18-.27.06.12.16.29.26.47.2.55.44,1.1.72,1.68-.19-.52-.4-1-.58-1.43.5.87,1.38,2.12,2.25,3.33l-.07.8c.07.1.12.18.19.29.63,1.34.81.88.71.02.45.6.94,1.1,1.33,1.48.01.7.62,1.47,1.26,2.29.62.82,1.29,1.67,1.46,2.55.47.28,1.66,1.72,2.88,3.1,1.28,1.33,2.6,2.59,3.17,2.62-.05.11.19.48-.33-.13.96,1.35,2.03,2.61,3.21,3.53l.03.93,1.52,1.04,1.57.97c1.29,1.79,1.8,2.59-.09,1.4,2.11,1.61,2.96,2.26,3.74,2.85.77.59,1.45,1.14,3.37,2.32l-.42.17c1.25,1,3.56,2.18,4.11,3.04.59.69,1.79,1.68,3.34,2.89.77.62,1.66,1.24,2.63,1.89.97.65,2,1.34,3.06,2.05,4.36,2.7,9.47,5.5,13.54,7.68-.56-.92.34-.32,1.5.36,1.17.66,2.59,1.45,2.92,1.1.39.46,1.52,1.09.05.75,2.21.81,3.88,1.41,5.35,2.02,1.47.6,2.83.98,4.5,1.08.44.42-1.08.1-.67.39.38.05,1.5.2,1.93.5.42.3-.73.02-1.48-.08,1.16.34,2.08.55,2.8.66.74.08,1.28.07,1.69.01.82-.12,1.12-.47,1.39-.82,1.13.47,1.99.77,2.8.93.81.13,1.57.13,2.48.04.77.42,2.11.95-.83.48.41.09,1.24.28,2.25.5.51.11,1.06.23,1.64.36.58.09,1.18.18,1.76.27,2.34.34,4.51.59,4.64.24.5.21,2.32.26,2.76.22,1.86.2,2.88.3,3.89.34,1.01.05,2.01.09,3.85.13l-1.02-.14c1.47-.68,3.05-.12,6.01-.24l-.08.08c1.7.15,2.73.1,3.43.08.7-.03,1.06-.08,1.42-.14.36-.05.71-.1,1.4-.12.34,0,.77,0,1.32-.01.55-.01,1.22-.03,2.06-.06l-.41-.44c.26-.55,1.73-.56,3.64-.54,1.89-.05,4.22-.13,6.1-.64l-1.43-.04c1.02-.32,2.52-.3,4.06-.21,1.54.08,3.12.26,4.17.01.47-.04-.68.35-1.3.55,5.62-.84.56-.79,4.57-2.01.84.11-.72,1.12,2.02.38.71-.09,2.6-.97,4.76-1.93,1.07-.52,2.2-1.06,3.31-1.52.56-.23,1.1-.43,1.63-.61.52-.19,1.02-.36,1.5-.48-.88.1-1.75.19-.04-.76,2.69-1.2,7.76-2.45,9.74-4.49.36-.12.52-.13.57-.08.93-.66,2.54-1.58,3.95-2.61,1.41-1.01,2.71-1.99,3.17-2.54.68.09,1.69-.46,2.89-1.24,1.19-.79,2.54-1.82,3.75-2.92,1.22-1.09,2.42-2.09,3.3-2.82.89-.73,1.54-1.11,1.77-.81.88-.77,1.78-1.51,2.64-2.3l2.54-2.41-.03.24c1.71-1.46,2.66-2.65,3.4-3.54.71-.91,1.15-1.59,1.54-2.29.76-.7.37-.04.37.08,2.28-2.34,3.56-3.62,4.52-4.98.97-1.35,1.85-2.62,3.12-5.07l.73-.16c.7-1.29,6.12-7.3,8.64-13.28.02.08.04.25-.14.73,1.48-3.31,3.69-7.03,5.31-10.43,1.67-3.38,2.72-6.42,2.31-7.95.43-1.53.67-3.11,1-4.66-1.89,5.82-.49-1.1-1.5,1.22.29-1.16.87-2.6,1.27-3.4.37-.81.63-.97.27.47l-.22.42c.7,1.32,2.22-7.27,2.74-6.99,1.26-5.92,2.07-11.85,2.57-17.72.09-1.47.18-2.93.27-4.39.04-1.46.04-2.92.06-4.37.04-1.45-.02-2.89-.1-4.33-.09-1.43-.1-2.87-.27-4.28-.2.46-.38.91-.6,1.37-.09-1.31-.25-2.62-.38-3.93.05-1.05.41-1.46.7,1.36.26-1.53-.88-4.67-1.1-4.71-.6-5.5,1.19,2.01.94.33l-.43-2.28v.53c-.3-.9-.53-1.38-.76-2.05-.11-.33-.22-.72-.34-1.23-.14-.5-.29-1.13-.46-1.96-.31-2.13.21-1.17.06-2.01.05,0,.01-.29-.25-1.28-.38-1.62-.81-3.24-1.22-4.86l-.04,2.08c-.83-2.06-1.21-4.52-1.22-2.13.01-1.75-1.26-6.23-2.92-10.4-.79-2.1-1.76-4.08-2.44-5.71-.74-1.61-1.35-2.8-1.5-3.3-.44-.65-.85-1.3-1.24-1.97-.42-.66-.84-1.33-1.25-2.02-.83-1.39-1.61-2.91-2.61-4.5.39.86.13,1.66-1.51-1.12.86.16.26-1.22-.78-2.9-1.05-1.66-2.34-3.75-2.8-5.06.46,1.13-.98-.7-2.34-2.36-1.37-1.66-2.78-3.06-1.92-1.38-1.66-2.14.28-.44-.81-2.23-4.58-4.59-9.49-10.74-15.93-15.63-.21.06.67,1.11-.83.24-.89-1.14-1.88-2.17-2.84-3.25-.67-.44-1.11-.45-1.63-.62-.52-.19-1.12-.52-2.17-1.56.26.35.64.87-.28.33-6.26-4.74-13.48-8.41-20.95-11.35-7.49-2.95-15.22-5.18-22.97-7.37,2.07.75.64.5-.98.21,1.04.28-.1.42.07.7-2.16-.53-4.32-1.1-6.51-1.56-.64.27-2.42.12-4.14-.02-1.71-.16-3.38-.15-3.73.13l2.11-.03c-1.42.32-.46.76.77,1.27,1.23.55,2.73,1.16,2.49,1.62.78-.14,1.67-.09,2.65.06.97.17,2.01.49,3.11.77,2.22.53,4.61,1.25,7.2,1.14,1.05.4-.99.12-.45.45,1.34-.2,2.85.13,5.57.98l-.34.02c1.96.41,3.57,1,5.09,1.45,1.52.45,2.87,1,4.25,1.56,1.38.55,2.79,1.11,4.33,1.86,1.55.72,3.28,1.47,5.25,2.52l-.4-.71c1.72.88,2.02,1.18,2.78,1.67,2.32.3-4.88-2.34-2.72-2.2.48.49,1.49,1.1,2.75,1.76,1.25.68,2.72,1.48,4.17,2.27,1.47.75,2.82,1.66,3.92,2.38,1.09.74,1.89,1.37,2.09,1.86,2.46,1.63-.43-.94,2.04.7l.49.68.84.1c1.6,1.11,2.12,2.06,2.05,2.28-.36-.3-1.12-.73-1.53-1.01.91.88,2.35,1.9,3.64,2.77,1.29.88,2.37,1.7,2.68,2-.7-.64-1.38-1.29-2.09-1.92,1.61,1.21,3.3,2.5,4.96,3.91,1.62,1.46,3.33,2.88,4.89,4.47.8.77,1.59,1.54,2.38,2.31.76.79,1.51,1.58,2.25,2.36,1.53,1.51,2.89,3.08,4.27,4.47l-.21-.6c.52.54.96,1,1.33,1.42.35.43.64.79.9,1.13.5.66.85,1.18,1.2,1.71.35.53.71,1.08,1.21,1.83.49.76,1.14,1.71,2.11,3.04l-.18-.17c.96.94,1.95,2.39,2.89,3.93-1.1-1.27,1.21,2.91-.19,1.21,1.84,2.65,2.25,3.35,2.64,3.73.35.41.7.5,2.02,2.24l.11,1.06c.47.58.76.88,1.13,1.4.36.52.83,1.24,1.52,2.75-1.37-2.34.32,2.15-1.27-.44.5,1.66,1.05,3.04,1.59,4.25.52,1.22.99,2.28,1.44,3.22.92,1.88,1.5,3.41,1.41,5.09.97,1.34.65-.11.18-1.71-.44-1.61-1.2-3.29-.77-2.5-.1-.75.31-.21.83.79.48,1.01,1.04,2.49,1.32,3.54.33,1.06.32,2.05.34,3.45.02.7.07,1.49.2,2.44.07.48.15.99.27,1.55.09.57.2,1.18.35,1.86-.11-.54-.19-.56-.3-1.09.09,1.04.39,2,.68,3.03.15.51.29,1.05.41,1.61.09.57.14,1.16.14,1.81.84,1.3.49,3.24,1.34,3.53l-1-4.98c.33,1.4.84,2.73,1.3,4.31.46,1.58.73,3.45.79,5.83-.2-.36-.57-1.74-.79-2.69-.1,1.4.49,2.64.33,4.1-.38-.18-.58-1.7-.82-3.55-.12-.93-.23-1.94-.38-2.9-.2-.96-.42-1.87-.69-2.6-.06.76.36,2.16.55,3.21.2,1.06.29,1.74-.22,1.03.66,1.03.78,2.39.89,3.93.04,1.55.04,3.28.57,5.12l-.49-.23c.13.58.36,1.8.36,2.89l-.64-1.95c.55,3-.34,5.79-.23,8.66.12-3.01.26-3.35.44-3.25.19.1.43.64.59-.64.39,7.51-1.24,4.27-1.79,12.54.07-1.12.68-4.18.74-2.4-.13.79-.25,1.7-.46,2.52-.21.82-.42,1.57-.61,2.03-.68,5.47.6-.77.56,1.6-.81,1.78-.22,2.71-.49,5.15l-.48-.08c-.19.77-.32,1.37-.41,1.85-.11.48-.17.83-.2,1.1-.06.54.02.76.09.95.16.39.32.7-.54,3.43l-.07-2.51c-.19.97-.34,1.95-.56,2.92-.12-.25-.23-.49-.36-.73-.25,1.6-.49,2.63-.78,3.63-.29,1.01-.64,1.99-1.26,3.44.57-.58.69.67-.24,3.33-.95,1.69,0-1.15-1.45,2.55.04-.95.13-1.96,1.09-3.44-.09-.22.01-.93-.08-1.16-.94,1.83-1.93,4.76-2.46,6.09.23-.5.5-1.1.69-1.39-.26.92-.51,1.86-.79,2.78l-.92,2.74c-.55.74-.37.03-.2-.67-.46,1.06-.55,1.92-1.32,3.45-.15-.57-.52-.64.32-2.9-.6,1.72-1.36,3.37-2.08,5.04-.31.25-1.73,2.23-1.52,1.54-.87,1.23-1.63,2.92-2.51,4.7-.95,1.73-1.91,3.62-3.22,5.14-.06.21-.25.59-.71,1.31-.57.75-1.15,1.46-1.73,2.16-.61.68-1.21,1.36-1.83,2.06-.61.7-1.21,1.44-1.83,2.22-.64.76-1.28,1.59-1.93,2.51-.75.46-1.45.96-2.22,1.39-2.33,2.6,3.05-1.84-.85,2.51-2.75,3.11-1.5.68-2.67,1.54-.63.82-1.47,1.97-2.56,3.19-1.1,1.2-2.52,2.39-4.15,3.4.88-.91,1.7-1.46,2.56-2.26Zm-37.18,21.48c.38-.18.95-.47,1.5-.7.54-.26,1.07-.47,1.41-.45-.7.87-1.49.88-2.9,1.15Zm-65.12,2.81c.65.03,1.57.31,2.6.76-.78-.16-1.66-.37-2.6-.76ZM7.53,85.98s0,.06,0,.1c-.83,1.77-.53,1.15,0-.1Zm1.63-3.7c.09-.4.02-.4-.11-.27,0,.31-.34,1.15-.75,2.09.22-.22.5-.67.86-1.83Zm219.54,17.06l.04.79c-.51-1.7-.28-1.24-.04-.79Z"/>
          <path class="cls-1" d="m93.84,234.74c.22.13.26.23.3.33.34-.02.37-.11-.3-.33Z"/>
          <path class="cls-1" d="m206.51,189.42l.08-.1c.02-.07.02-.12,0-.16l-.09.26Z"/>
          <path class="cls-1" d="m6.35,142.99c.06.8.05,1.26,0,1.57.12.02.16-.35,0-1.57Z"/>
          <path class="cls-1" d="m18.22,62.85c-.46.74-.85,1.52-1.26,2.28.63-1.09.93-1.43,1.35-1.91-.13-.01-.54.31-.1-.37Z"/>
          <path class="cls-1" d="m34.3,47.17c.22-.31.55-.57.76-.87l-.23-.08c-1.1,1.14-1.74,2.05-.53.95Z"/>
          <path class="cls-1" d="m20.89,61.73c.47.07,1.17-1.39,2.2-2.86-.06.09-.12.17-.19.26-.07-.38-.36-.15-.74.37-.38.53-.82,1.39-1.27,2.24Z"/>
          <path class="cls-1" d="m23.32,58.53c.31-.46.64-.92.97-1.34-.06-.31-.44.52-.97,1.34Z"/>
          <path class="cls-1" d="m10.92,77.47c.46-.73-.24-.71.12-1.08-.03-.55-.5.83-.74,1.78-.13.47-.17.86-.09.83.07-.02.27-.44.72-1.53Z"/>
          <polygon class="cls-1" points="22.79 61.28 22.03 61.53 21.81 62.58 22.79 61.28"/>
          <path class="cls-1" d="m15.27,73.14l1.46-2.45c-.09,0,.03-.35.21-.76-.84,1.54-1.83,3.2-1.67,3.21Z"/>
          <path class="cls-1" d="m16.94,69.94c.45-.8.9-1.54,1.09-2.02-.24.43-.79,1.34-1.09,2.02Z"/>
          <path class="cls-1" d="m20.78,64.59l-.55.65-1.06,1.7c.54-.78,1.02-1.6,1.6-2.35Z"/>
          <path class="cls-1" d="m4.94,101.88l-.45,3.08c.11.34.37-.47.53-1.62.02-.75.18-1.9-.08-1.46Z"/>
          <path class="cls-1" d="m8.57,93.16c-.34.77-.46.79-.76,1.19l.57.26.19-1.45Z"/>
          <path class="cls-1" d="m6.48,101.87c.11.34-.36,4.46.34.65-.13-.34.38-3.38-.34-.65Z"/>
          <polygon class="cls-1" points="5.51 147.96 5.34 147.19 4.36 147.5 5.51 147.96"/>
          <path class="cls-1" d="m22.83,184.52c-1.68-3.18-1-.39-2.42-3.32-.66-.6,1.16,2.4.54,1.77,1.37,1.72,1.84,2.76,1.88,1.55Z"/>
          <path class="cls-1" d="m20.95,182.97c-.22-.28-.46-.57-.72-.87.39.5.59.73.72.87Z"/>
          <path class="cls-1" d="m124.68,9.81c-.79-.16-1.6-.23-2.4-.34l1.54.4c.29-.03.57-.04.86-.06Z"/>
          <path class="cls-1" d="m120.03,10.35l-.55-.67-1.45.53c.54,0,1.59-.02,2,.14Z"/>
          <path class="cls-1" d="m145,231.42l-.13.2c.39.07.91-.06,1.96-.31l-1.83.11Z"/>
          <polygon class="cls-1" points="173.67 219.64 173.21 219.91 174.37 219.88 173.67 219.64"/>
          <path class="cls-1" d="m193.68,203c-.74.76-1.57,1.7-2.37,2.4,1.65-1.62,3.08-2.09,2.37-2.4Z"/>
        </g>
      </g>
      <g>
        <path class="cls-3" d="m48.33,187.04c-.74-.08-.03.24.43.69l-.43-.69Z"/>
        <path class="cls-3" d="m48.76,187.73l.3.49c-.03-.17-.15-.34-.3-.49Z"/>
        <path class="cls-3" d="m51.96,192.02c-1.19-.59-1.65-2.14-2.65-2.31.25.6.72,1.25,1.22,1.72.51.46,1.07.71,1.43.58Z"/>
        <path class="cls-3" d="m51.03,190.38l-.36.11c.37.15.72.32,1.11.45-.27-.17-.5-.38-.75-.57Z"/>
        <path class="cls-3" d="m50.79,189.58v.2c.46.34.88.72,1.36,1.03-.48-.38-.9-.82-1.36-1.23Z"/>
        <path class="cls-3" d="m54.66,195.21c-.33-.25-.64-.53-.94-.81-.45-1.18.98.1.68-.68-1.05-1.11-1.08.31-2.29-1.2-.22.42,2.13,2.25,1.41,2.52,1.01,1.31.35-.23,1.14.18Z"/>
        <path class="cls-3" d="m122.79,215.86c.06.03.11.04.17.06-.07-.07-.14-.13-.17-.06Z"/>
        <path class="cls-3" d="m142.2,213.29c.28.02.55,0,.81-.02-.09-.05-.21-.1-.35-.12l-.46.14Z"/>
        <path class="cls-3" d="m110.36,216.67c-.28-.11-.53-.19-.76-.25.14.11.36.21.76.25Z"/>
        <path class="cls-3" d="m219.14,162.86c.02.07.05.14.12.2,0,0,.02-.01.03-.02l-.05-.29-.11.12Z"/>
        <path class="cls-3" d="m162.66,205.83c.28-.13.55-.27.77-.42-.47.19-.68.32-.77.42Z"/>
        <path class="cls-3" d="m103.23,215.84c.11.02.2.03.3.05-.09-.04-.21-.08-.36-.12l.04.07s0,0,.01,0Z"/>
        <path class="cls-3" d="m135.78,213.42c.27.02.51.02.71-.02-.25-.02-.48,0-.71.02Z"/>
        <path class="cls-3" d="m69.16,207.5c.27.24.54.36.8.43-.14-.21-.37-.38-.8-.43Z"/>
        <path class="cls-3" d="m75.65,210.99s-.03-.01-.04-.02c0,.1.03.09.04.02Z"/>
        <path class="cls-3" d="m79.92,213l-.08-.02c.03.08.05.1.08.02Z"/>
        <path class="cls-3" d="m69.97,207.92c.38.55.1,1.42,1.28.95l-.07-.19c.3.43,1.1.44,1.59.68,0-.11-.02-.21-.06-.31-.23-.14-.54-.35-.99-.68-.47-.51-1.09-.3-1.75-.45Z"/>
        <path class="cls-3" d="m122.71,216.05c-.07-.18-.54-.07,0,0h0Z"/>
        <path class="cls-3" d="m116.61,216.7c.2.02.4.04.6.06-.19-.05-.38-.09-.6-.06Z"/>
        <path class="cls-3" d="m93.89,213.22s.06.04.1.06c.06-.09-.03-.1-.1-.06Z"/>
        <path class="cls-3" d="m117.77,216.79c-.19,0-.37,0-.55-.02.17.05.34.07.55.02Z"/>
        <path class="cls-3" d="m100.55,215.18s.06.04.09.04c-.02-.02-.05-.03-.09-.04Z"/>
        <path class="cls-3" d="m228.48,68.11c.28.42.16.78.28,1.24,1.03.69-.86-1.97.29-.82-.19-.42-.42-.72-.64-.99l-.29.85c.59.73-.06-.64.37-.28Z"/>
        <path class="cls-3" d="m223.14,158.28l-.15.16c.31,0,.35.17.83-.48-.09-.8-1.12-.15-1.03-1.41-.06.22-.22.52-.41.77.55-.26.71.35.76.96Z"/>
        <path class="cls-3" d="m222.37,157.31s-.03,0-.04.01c-.07.02-.14.05-.21.08-.07.15-.17.28-.27.38.16-.06.36-.24.53-.48Z"/>
        <path class="cls-3" d="m233.6,83.56c.03.2.05.38.07.55.05-.29.01-.44-.07-.55Z"/>
        <path class="cls-3" d="m164.35,213.63c-.2.14-.39.29-.53.42.32-.16.46-.29.53-.42Z"/>
        <path class="cls-3" d="m216.91,167.76c-.14.12-.26.27-.39.42-.06.1-.1.19-.17.32l.56-.74Z"/>
        <path class="cls-3" d="m226.03,131.95c.58.53.03-.29.57-.95l-.22-.77c-.25.61-.24,1.22-.36,1.72Z"/>
        <path class="cls-3" d="m228.43,67.47s-.04.02-.06.02c.01.02.02.03.04.05l.02-.07Z"/>
        <path class="cls-3" d="m228.58,111.26c.04-.12.07-.22.11-.34-.04.07-.08.17-.11.34Z"/>
        <path class="cls-3" d="m220.03,161.06c-.47.82-.98,1.61-1.46,2.42l.57-.62c-.11-.51,1.09-1.24.89-1.8Z"/>
        <path class="cls-3" d="m222.32,142.81l-.48.08c-.03,1.41-.68,2.7-1.21,3.96-.56,1.25-1.12,2.41-.96,3.66-2.71,2.33.28,2.52-2.23,4.64h.23c-2.38,4.35-5.23,8.58-8.21,12.59-2.98,4.01-6.07,7.82-8.92,11.46l-.21-.22c-5.22,5.27-10.66,10.17-16.51,14.53-5.88,4.31-12.12,8.14-18.86,11.05-1.14.8-.11,1.07-1.07,1.85-.49.18-1.54.69-1.69.35.84-.59.2-.66.45-.93-1.5.72-3.66,1.03-4.86,2.01h1.32c-.47.39-1.36.6-1.86.74.12-.3-.76-.54-.38-.8-2.56,2.1-2.44.36-4.79,1.54-.1.56-.88,1.27-1.89,2-1,.75-2.25,1.42-3.23,2.05l-1.18.03c1.49-.37-.2-.71,1.65-1.12-.8.05-1.53.27-2.24.51-.72.2-1.43.42-2.18.49.34.19.33.53-.24.76-.93.05-1.11-.43-2.14-.27l.95-.52c-.75-.22-1.24.37-1.87.53-.28-.38-1.83-.21-1.63-.72-1.29.79-1.82.58-3.28,1.1,1.62.26-.33.6-.11.92.58-.13,1.17-.24,1.75-.39-2.53.05.8-.17.5-.89,1.21.14-1.43,1.43.51,1-2.29.75-2.84.41-5.19,1.31,1.45-.31-.23.5.58.62-1.86.25-.49-.2-1.11-.59-1.01.1-1.42-.28-2.31.32-1.66-.09.21-.56-.64-.79.28-.27,1.43-.2,2.44-.26,1.01-.07,1.86-.31,1.55-1.06.84-.12,1.79-.84,3-.95-1.08-.08-2.64-.42-3.9.09l.02.89c-.99.13-1.15.72-1.87.71.36-.28-.36-.61-1.16-.47.24.11.56.06.48.22-1.48.16-1.65.85-3.43,1.06,1.49.2,1.81.4,3.22.69-.33.65-.97.16-1.79.3.12-.09.29-.12.04-.23-.28.13-.57.24-.86.34-1.87-.21.19-.91-1.35-1.16-1.06-.49-1.43.34-2.24.07.05.05.11.11.16.15-.18,0-.31-.02-.4-.03,0,.01.01.03.01.04-.98.12-2.03.03-2.31.5-.1-.21-.86.05-1.18.19-.55.17-1.89.74-2.68-.08.02,0,.04,0,.06,0-1.22-.16-2.16-.44-1.88-.68l-1.95-.29.26-.59c-1.79.02-1.64.37-2.93.88-.62-.24-1.5-.35-2.34-.37-.83-.05-1.62-.04-2.05.01-.14-.04-.35-.08-.71-.1l.71.34c-1.39-.22-1.27.12-2.19-.01.18.08.21.12-.3-.05-.15-.04-.32-.07-.52-.12.06-.06.26-.02.46.04l-.14-.22c-1.01-.8-1.76.05-2.92-.38.12,0,.32,0,.44.02-.64-.29-1.43-1.31-1.8-.84-.14-.09-.39-.03-.65.05l-.47-.18c.2.07.34.12.46.18-.34.11-.67.27-.68.13l-1.67-.5c-.3-.16-.75-.19-1.12-.18l-.23-.31c-.62-.11-.59-.25-.5-.3-1.91-1.32-3.4-.44-5.5-1.78-.55.28.35.73.36.97-.44.21-1.85.14-2.54.16-.85-.83-3.65-2.44-2.86-3.05-1.75-.75.37.7-.63.62l-.19-.11c.58.33.96.79,1.21,1.22-.02.49-1.68-.02-2.12-.33l.58-.46c-1.74-.47-1.77.55-3.08.7-1.23-.84-.22-1.02-.26-1.67l-1.44-.49.21-.44c-.94-.3-1.33-.02-2.46-.8,1.08.04-1.59-1.33-.11-1.25-.58-.49-1.21.21-1.23-.54-.7.2.46.55.71.88-.08.8-1.61-.5-2.49-.78.13-.37.75-.1-.04-.84-.34.15-1.03-.02-1.35-.64-.25.41-1.07-.55-1.57-.89.52.44,1.17,1.25.57,1.37-.55-.12-1.01-.26-1.98-.99.19.22.38.44.58.65-1.29.01-1.17-1.41-2.49-2.04.67.11.98.32,1.61.33-.68-.21-1.97-.61-2.95-1.08l-.55-1.3c-.33.19-1.06-.85-1.36-.47-1-1.17,1.32.28,1.65.08-1.28-1.4-1.73-.24-2.64-1.99l.74.04c-.43-.41-1.51-.98-1.43-1.21-.1.12.17.27.45.51-.9.51-2.56-1.28-3.05-.39l.6.59c-1.13-.67-2.22-.86-2.72-1.79-.34-.76.86-.12,1.36,0-.83-.88-1.47.12-2.47-.95.45.64.1.8-.42.66.57.63,1.75,2,1.8,1.48l-.16-.28c.23-.14.63.11.89.17.84.79.09.71.13,1.01,1.37,1.38.78-.64,2.1.52l.05.3c.81.35,1.83,1.17,2.39.83.21.97,1.73.99,2.16,1.8-.71,1.21-2.34-1.83-3.54-1.91.52.82-.83.18-1.34.17.89.47,1.74.97,2.66,1.38.06.29.32,1.38,1.06,1.29l-.16-.17c1.02.58,1.12-.08,1.8.68.05.19-.33.2-.45.23.68.64.82.18,1.4.43.69.63-.72.21-.17.78,1.2.15,1.33,1.08,2.13,1.57.11-.88,3.72,1.02,2.39-.64.72.22,1.42.48,2.16.67.38.71-1.88.21-1.7,1.09l-1.5-.96c-.14.5.74.86,1.7,1.28.98.39,2.05.83,2.3,1.61.81.51.67.26,2.06,1.53l.13-.94c.74.61.79,1.18.76,1.35.52.2.96.42,1.41.67-.18.06-.4.09-.73-.01.43.75.7.67,1.04.54.44-.04.95.24,1.5.47l-.63.09c.36.07.81.16.91.03.23.09.45.17.68.2-.09-.21-.24-.84-.92-1.38,1.86,1.18,3.49,1.64,5.04,2.94-.15.22-1.01.26-.79.37.85.45,2,.33,2.03-.07.21.04.38.08.52.12.11.26.28.56.69.71.08.1.22.22.51.33.49-.6,2.1.21,2.55,0-.38-.18-.88-.31-1.38-.43.84-.26,1.61-.61,2.07-.09-1.44.07,1.23,1.1-.82.74,1.18,1.26.9-.42,2.3.3l.89.57c-.28.47-1.65-.13-1.46.11.23.04.46.08.69.11-.78.21-3.23-.75-4.94-.61l3.06,1.14c2.03.28,4.34.75,6.52,1.23,2.22.38,4.37.7,6.19.41h-.15c.07-.05.11-.14.19-.33l.14.15.74-.29c.7.59,2.15.89,3.34,1.45q-.74-.43-.77-.82c.22-.5.36-.67,1.49-.35-.03.36-.74.28.08.66-.42-.22,0-.44.51-.44.62.3,1.71.46,1.69.83-.31.07-.54-.08-.74-.15-.31.07,1.2.45.27.66h1.2c.67.39-.51.45-.25.67,2.01-.03,3.09-.85,4.88-1-.09.19-.16,1.01-.12.77.68.16,1.44-.02,2.21-.24.77-.25,1.56-.54,2.34-.57-.23.24-.82.14-1.29.25,1.2.08,2.34.16,3.45.23,1.11.06,2.2.06,3.27.1,2.15.11,4.27.11,6.57.33.37-.3.73-.62,1.09-.95l1.23.42c1.2-.01,2.32-.06,3.4-.19,1.07-.15,2.1-.35,3.12-.56,1.02-.2,2.02-.47,3.03-.77,1.02-.29,2.05-.58,3.14-.89,1.35-.39.95.36,1.66.43,3.05-.65,3.52-1.79,6.28-2.82-.31.36-.77,1.25.47.92.15-.31.19-.69,1-.81l-.31.38c.81.13,1.37-.45,2.87-.79,1.28-.43,2.46-1.04,3.52-1.75,1.06-.71,2.04-1.46,2.85-2.35,2.19-.86.13.93.61.92-1.65.39-1.01.59-1.24,1,.74-.55,1.65-1.13,2.31-.76,1.12-.54,1.65-.72,2.59-1.6-.47.46-1.09.36-.68-.12,1-.24,3.2-1.58,3.41-.84,5.19-2.73,10.92-5.96,16-9.66.64-.92-.74.34-.43-.22.96-1.29,1.15-.48,1.89-1.55l-.16.64c1.48-1.08,2.61-2.81,3.7-4.24.07.55,1.36-.62.41.52.61-.61,2.76.32,3.01-.44l-2.01-.86c-.09-.18.92-.86.74-.88.83-.18,1.8-.48,2.2-.83.52.2-.54,1-1.08,1.47.45.7,2.17-1.23,1.88.03,1.08-1.14-.44-.17.05-1.02l1.13-.78-.97.5c.67-.95.56-1.63,1.96-2.34l.57-1.66c.56.35.9-.7,1.58-1.15l-.07.64c.76-.75,1.1-.99,1.74-1.3-.01.83-.77.6-.56,1.17l.95-.72c-.27-.25.04-.99-.7-.54.25-1.27.29-2.05,2.14-4.01,1.28-.5-.46,1.36.33,1.4,2.07-1.96,1.09-3.64,2.18-4.85,1.51-1.45,1.01-1.71,2.29-3.38-.07.8,1.25-.89,1.81-.96l-.16.94c.29-.6.79-.99.93-.65-.53-.25,1.24-2.52,1.83-3.9l-.55-.07c.52-1.03,1.18-2.48,1.91-3.43.83-1.59.25-1.49.53-2.92.78-.4,1.18-.07,1.51.44-.47.28-.79,1.03-1.34,1.62-.84,2.14-1.02,4.18-2.53,5.92.4,1.51.77-1.34,1.75-2.01.04.07.01.15-.03.22.06-.08.11-.15.19-.21-.35.76-.96,1.96-.6,2.5.7-1.21-.4-1.51,1-2.62.46-1.22,1.77-1.59,2.27-2.19.07-.96-.68-1.48.55-3.15.03.37.08.76.1,1.13,1.22-2.01-.27-1.46.86-3.3-.45.61-.2-.96-.94.27.05-.79.8-2.16,1.5-3.1.05-.32-.17-.17-.34-.32-1,.91-.59,2-1.71,2.58l.17,1.14c-.84.9-1.39.7-1.26-.07-.14.3-.21.61-.44.75-1.03-.39,1.06-1.03.48-1.86l-.36.76c-.79-.05.46-1.99,1.04-2.89.86-.91,1.5-1.83,1.99-1.66l-.59,1.55c.76-.56.79-1.97,1.26-2.8.09-.02.18-.08.27-.16-.06.02-.12.03-.16,0,.12-.17.26-.3.44-.38.39-.75.66-1.99,1.15-2.62l-.45-.11.18.21c-.35.68-1.06,1.49-1.11.82.47-1.68,1.42-1.62,1.96-1.82.46.66-.75,1.52-.93,2.42.84-.18.87-1.55,2.03-3,.42.99-.92,1.89-.45,2.55.76-1.26.45-1.83,1.24-3.16.24.32-.33,1.71.11,1.81l.6-.82c-.96,2.25,1.05,0,.4,1.83.69-.69-.04-1.41.93-2.39-.45.2-1.41.88-1.18-.36l.76-1.18c.57-.39.15,1.65.8.94l.35-1.44c-.23-.04-.61.55-.72.03.57-.67-.28-1.61-.23-2.64.3-.72.57-1.28.92-1.44.07-1.03.27-2.14.48-3.22.2-1.09.44-2.13.38-3.1.08,1.31.75.19,1.29-.42-.32,1.39.35,1.62.81,1.67.18-.86-.35-1.63-.7-1.28.7-1.3-.18-1.1.65-2.18.48-.72.55.59.89.39.48-1.51-.68-.64-.09-2.25.07.12.06.27.22.18.38-.86.3-1.9.01-2.18,1.16-.72.55-2.71,1.38-2.32.23-2.24-.55.22-.76-.28-.2-.98.47-2.55.72-3.04-.1.54.04,1.08-.21,1.57l.71-.33c1.02-2.65-1.06-2-.05-4.53.09,1.41.39.53.71,1.28-.08-.44.44-2.49-.24-1.31.23-.98.44-1.66.63-2.34-.12-.92-.17-1.91-.51-2.47.26-1.38.73-2.38,1.08-3.03-.05-.75-.03-1.48.03-2.2.04-.72.1-1.44.17-2.16.14-1.44.27-2.92,0-4.49l-.04.23c.1-2.43-.82,1.07-.81-1.44.76.33.53-1.51.87-2.34.11-1.56-.06-2.89-.3-4.19-.25-1.29-.48-2.55-.36-4,.16,0,.37.17.44.72-.01-2.2-.43-3.93-.7-5.89l.11.07c0-1.61-.29-3.1-.74-4.57-.49-1.46-1.05-2.91-1.55-4.46.16.23.47.22.61.4-.29-1.63-.89-4.23-1.93-5.12.08-2.09-.63-1.15-.76-3.78.08-.18.2.2.28.34-.15-1.27-.59-2.05-.96-3.26-1.45-2.43-2.68-2.62-3.71-5.67.87-.59,1.04,1.69,1.82,1.42-.43-.51-.85-.93-.99-1.85.59.32.28,0,.77.17,0-.76-2.17-2-2.08-2.03-.2.06-.19.31.12.86-.92-.38-1.44-2.8-2.42-4.04.25.44.76,1.95.07,1.65-.75-1.94-2.02-2.03-3.06-3.07-.52-1.88,1.44.78,1.9.11.08-.41.2-1.37.85-.8-.36-.79-.83-1.38-1.32-1.93-.5-.54-1.05-1.02-1.52-1.63l.2-.07c-.61-.89-1.4-1.7-2.12-2.49-.76-.77-1.43-1.54-1.77-2.39l.35.91c-.3-.22-.86-1.14-1.54-1.38.32-.14-.23-1.47.33-1.16-1.44-.13-3.45-3.47-4.92-3.65-.15-.6.49-.54.79-.56.75,1.11.84,1.61,1.62,1.9-.69-.88-.96-1.7-.66-1.72-1.22-.47-3.15-2.31-4.01-2.3-.26-.84-.61-1.56,0-1.71-2.54-2.3-.19,2.39-2.75-.45-.76-1.66,1.7.76.22-1.15l.37.27c-.09-2.28-1.6-.2-2.87-1.68.4-.74,1.34.62.84-.78-1.41-1.15-2.81-.88-3.89-2.33l.44-.04c-.83-.79-2.36-2.42-3.25-3.15.07-.15.17-.02.36.09-1.35-1.66-.92-.3-1.83-1.89l-.62-.05c.46.8,1.42,2.22,2.54,2.64-1.11-.41.57,1.9-.3,2.02l.35-.05c1.22,2.82,3.67,5.48,5.7,8.43,1.07.55,1.63,1.33,2.16,2.16.54.82,1.06,1.67,2.05,2.42.97-.3.43.23,1.83,1.76-.76-.8-.64.33-.32.95.43.17.8.51,1.17.85.03.51.88,3.07,1.94,3.48.46,1.2-.41-.07-.73-.18-.11.69.89.62.86,1.14,0,0-.09.04-.21-.04,1.14,1.53,1.47,2.67,2.44,4.39.43-.17.77.2,1.08.68.29.5.57,1.11.93,1.41-.4-.1.25,1.14.37,1.71l1.12.6c1.01.66.31,1.49,1.2,2.56v-.37c.35.38.69,1.22.95,2.1.23.89.35,1.82.33,2.36,2.72,3.79,3.65,7.3,4.38,10.83.15.89.29,1.79.44,2.71.16.91.31,1.84.44,2.82.15.97.32,1.97.54,3.01.17,1.05.39,2.15.67,3.31.39.56.37-.53.86-.12.29.94.28,1.17.42,2.05.13-.82-.15-.65.11-.59-.14-.44-.31-.87-.48-1.31.05-.08.11.07.21-.08-.17-.44-.45-.93-.51-1.52.39.78,1.1.9,1.06,2.09-.11-.07-.17-.22-.28-.51.13.95.44.95.37,1.69-.02.89.15.65-.12.8l.02,2.75c.93,1.27.33,3.02.29,3.46-.63-.24-.36-1.78-1.01-2.38l-.35,1.01h.49s0,1.4,0,1.4l-.1-.07c.2.15.41.3.27.67-.06.06-.18.21-.22.06l.32.97c-.53-.54-.11.88-.69.76-.1,3.2.9,4.07.14,6.89.29-.46.88.91.74,1.79-.16.5-.3.62-.5.29l.25,1.15c-.94,1.38-.53,2.8-.99,4.85l-.24-.13c.23.8.34,1.65.11,2.8l-.48-.28c-.55,1.35.95,1.23.37,2.74.55.08.99-.87,1.51-.95-.57.3-.97,1.96-.51,1.63-.05,1.6-.2,1.08-.35,1.19l.17.98c-.21,1.1-.76.22-1-.24.43,1.13-.26,2.15-.58,3.28l-.14-.52-.42,1.48c.22,1.08-.14,2.45-.67,3.65l-.47-1.05c-.59.78.12.51.18.78-.01,1.49-.58,1.65-1.19,2.26.02,1.2-.57,2.22-1.16,3.18-.6.96-1.15,1.88-.96,2.98Zm-127.97,70.87l.19.15c-.51,0-.81.06-.19-.15Zm12.69,2.52c-1.58.06-1.05-.21-1.14-.42,1.49.43,2.37.28,3.69.64-.2-.16-.22-.36-.28-.49.53.09,1.05.3,1.2.68-.75.66-4.11-.88-3.48-.41Zm-29.51-4.07c.07-.03.16-.05.24-.07h0s-.25.07-.25.07Zm7.7,2.33c.06.18.23.33.45.45-.09-.23-.19-.42-.45-.45Zm15.14,4.57c.31.36,1.15.44,1.76.46-.28-.07-.76-.26-1.76-.46Zm93.53-25.07c-.29.39-.8,1.21-.02.85.14-.45,1.02-.6,1.02-1.11.05-.02.06-.02.09-.03-.53.12-.97.21-1.09.29Zm26.9-37.57c.23.21.36.67.66.57-.02.03-.05.07-.08.11.14-.06.26-.11.28,0,.22-.31.46-.64.5-.91-.81-.55-.6-1.32-1.35.24Z"/>
        <path class="cls-3" d="m216.19,171.82c.09-.16.18-.27.23-.38-.07.1-.14.22-.23.38Z"/>
        <path class="cls-3" d="m222.12,156.23c-.04-.06-.32.3-.66.74.16-.04.36-.24.66-.74Z"/>
        <path class="cls-3" d="m58.14,195.3l.39.24-.46-.83c-1.31-.79-1.66-.55-2.27-.46,1.31.61,1.74,1.35,3.11,2.43-.27-.45-.52-.93-.78-1.38Z"/>
        <path class="cls-3" d="m56.53,198.22c.03.2.09.72.26.89l.37-.07c-.22-.26-.43-.54-.63-.82Z"/>
        <path class="cls-3" d="m70.84,210.24l-1.19-.96c-.55-.01.76,1.24,1.19.96Z"/>
        <path class="cls-3" d="m67.99,202.5l-.8-.15c.41.59,1.18,1.08,1.49.87-.85-.35-.08-.29-.69-.71Z"/>
        <path class="cls-3" d="m74.4,212.21c.67-.3,1.24.9,1.77.54-.44-.01-1.45-1.01-1.77-.54Z"/>
        <path class="cls-3" d="m75.98,206.83c-.14-.69-1.03-.59-1.75-1.15.64.38,1.3,1.36,1.75,1.15Z"/>
        <path class="cls-3" d="m82.42,213.94c-.21.36-.8.1-1.42-.24.27-.03.48-.16.8-.1-1.21-.12-1.27-.21-2.21-.41.75.65,2.02,1.33,1.69,1.76.8-.1,1.82-.35,1.14-1.01Z"/>
        <path class="cls-3" d="m77.93,207.73c-.6-.46-.82-1.02-1.62-1.39,0,.33.08.84,1.04,1.25l-.55.26c.71.76-.06-.73,1.13-.12Z"/>
        <path class="cls-3" d="m86.27,216.37l-.4-.34c-1.25.05-2.54-.61-3.35-.25,1.27.44,3.08.72,3.74.59Z"/>
        <path class="cls-3" d="m80.9,210.06l.39-.57c-.92-.49-.02.24-.42.24-.24-.21-.62-.44-.88-.41,1.13.37-.15.53.91.73Z"/>
        <path class="cls-3" d="m84.35,210.62c.45.05.89.12,1.33.16l-.72-1.03c-1.52-.26-.21.37-.61.87Z"/>
        <path class="cls-3" d="m85.74,211.57l.1.17c.74-.1,1.42-.27,2.18-.4-1.29.08-1.27.02-2.28.23Z"/>
        <path class="cls-3" d="m109.31,220.88c.26-.27-.92-.74-.43-.37-.26.22,1.34.75.43.37Z"/>
        <path class="cls-3" d="m105.09,214.91c.54.28,2.45.18,3.28.04-.99.06-3.36-.46-3.28-.04Z"/>
        <path class="cls-3" d="m108.71,214.9c-.07,0-.19.03-.34.05.15,0,.26-.02.34-.05Z"/>
        <path class="cls-3" d="m142.55,211.93c.08-.03.16-.06.22-.12-.08.04-.14.08-.22.12Z"/>
        <path class="cls-3" d="m141.79,212.26c-.55.02-1.58.41-1.72.73.83-.28,1.55-.55,2.47-1.06-.36.11-.86-.01-.76.33Z"/>
        <path class="cls-3" d="m149.4,210.64c-.34.29-.91.32-.7.57.26.07,1.01-.44.7-.57Z"/>
        <path class="cls-3" d="m200.48,191.24c.69-.45.95-.87.5-1.02-.64.63-.12.47-.5,1.02Z"/>
        <polygon class="cls-3" points="201.66 189.44 201.89 189.51 202.49 189.38 201.66 189.44"/>
        <path class="cls-3" d="m206,185.91c.02.08-.03.23-.1.37.18-.27.32-.5.1-.37Z"/>
        <path class="cls-3" d="m205.81,186.41s.06-.09.09-.13c-.03.04-.06.09-.09.13Z"/>
        <path class="cls-3" d="m205.46,186.58l.12.2c.04-.09.14-.23.23-.37-.09.12-.23.21-.35.17Z"/>
        <path class="cls-3" d="m207.2,184.73c-.39.12-.78.24-1.19.35-.53,1.01,1.11-.69.86.57.12-.3.22-.61.33-.92Z"/>
        <path class="cls-3" d="m209.52,181.84c.82-.64.96-2.42,1.91-2.38,1.49-2.47-1.38-.27.41-3-2.2,2.16.17,2.13-1.89,4,1.2-.73-.27.93-.43,1.39Z"/>
        <path class="cls-3" d="m208.23,181.37c.18.38,1.05-.57,1.1-1.05-.27.26-1.08.41-1.1,1.05Z"/>
        <polygon class="cls-3" points="212.79 177.28 213.56 176.76 213.5 176.43 212.79 177.28"/>
        <path class="cls-3" d="m214.92,174.72l-.16.94c.03-.33.83-1.33.16-.94Z"/>
        <path class="cls-3" d="m218.05,171.24c.58-.59.13-1.76-.63-.23l.25-.29c.08.17.89-.39.38.52Z"/>
        <path class="cls-3" d="m222.25,161.27c-.28.47-.47,1.11-.24,1.11l.53-1.43-.3.32Z"/>
        <path class="cls-3" d="m219.97,160.27c-.77.14-.61,1.24-1.3,1.97.66-.9.69-.73,1.3-1.97Z"/>
        <path class="cls-3" d="m223.84,160.17c.03.48-.41.96-.63,1.28.4,0,.81-.96.63-1.28Z"/>
        <path class="cls-3" d="m224.76,157.94c.44-.33.26.25.58,0,.72-.83,1.18-1.86,1.14-2.55-.36.14-1.18.17-1.27-.35-.54,1.6.11,2.9-1.04,3.24.12.59.2,1.16.3,1.75.8-1.12-.18-1.27.3-2.08Z"/>
        <path class="cls-3" d="m221.37,159.99l.74-.61c-.4,0-.13-.63,0-1.1-.81-.16-.53,1.24-.73,1.71Z"/>
        <polygon class="cls-3" points="228.2 149.21 228.73 147.36 228.46 147.92 228.2 149.21"/>
        <polygon class="cls-3" points="228.88 148.16 229.11 148.19 229.26 146.67 228.88 148.16"/>
        <polygon class="cls-3" points="229.87 146.38 229.76 146.58 229.53 147.7 229.87 146.38"/>
        <path class="cls-3" d="m231.34,142.63l-.43.23c-.08.49-.75,1.29-.29,1.35,0-.45.38-1.39.73-1.58Z"/>
        <path class="cls-3" d="m226.44,128.09c.15.36.38.21.62.06l-.45-.61c0,.15-.01.46-.17.55Z"/>
        <path class="cls-3" d="m227.74,126.14l-.41-1.42c-.36,1.48.12,1.79-.03,3.12.32-.52-.02-1.38.28-2.06l.16.35Z"/>
        <path class="cls-3" d="m229.23,99.54c.43.08.34-.22.7.75-.38-1.34-.4-2.52-.7-4.06-.22.3-.84-.79-.64-.21l.49,1.69-.32-.22c-.14,1.24.55.74.47,2.06Z"/>
        <path class="cls-3" d="m201.78,34.84c.26-.02.24-.31.21-.59-.92-.61-.03.72-.21.59Z"/>
      </g>
      <g>
        <path class="cls-3" d="m223.84,109.67c.45.6.2-.15.21-.8l-.21.8Z"/>
        <path class="cls-3" d="m224.05,108.87l.15-.57c-.1.14-.14.35-.15.57Z"/>
        <path class="cls-3" d="m224.96,103.47c.39,1.3-.4,2.73.16,3.58.26-.61.41-1.42.41-2.12-.03-.7-.23-1.29-.57-1.47Z"/>
        <path class="cls-3" d="m224.41,105.32l.33.19c-.14-.38-.27-.76-.44-1.14.06.32.08.63.11.95Z"/>
        <path class="cls-3" d="m224,106.07l.15-.14c-.06-.58-.09-1.15-.19-1.73.06.63.03,1.25.05,1.87Z"/>
        <path class="cls-3" d="m225.4,99.23c.03.42.08.85.08,1.27-.54,1.16-.6-.8-.97-.02-.08,1.56.97.58.7,2.54.46-.13.17-3.16.86-2.82.23-1.67-.41-.09-.67-.97Z"/>
        <path class="cls-3" d="m191.81,35.01c-.02-.07-.05-.11-.08-.17,0,.1.01.19.08.17Z"/>
        <path class="cls-3" d="m175.63,23.33c-.19-.21-.4-.4-.62-.55.03.1.09.21.18.33l.44.22Z"/>
        <path class="cls-3" d="m201.46,43.25c.12.28.25.52.37.74-.02-.18-.11-.41-.37-.74Z"/>
        <path class="cls-3" d="m82.76,9.69c.03-.06.05-.14.04-.23,0,0-.02,0-.04,0l-.16.25.16-.02Z"/>
        <path class="cls-3" d="m155.08,14.95c-.29-.1-.59-.18-.87-.21.49.16.74.22.87.21Z"/>
        <path class="cls-3" d="m205.99,49.01c-.06-.09-.12-.17-.18-.25.04.09.09.22.16.35l.02-.09s0,0,0-.01Z"/>
        <path class="cls-3" d="m180.51,27.7c-.19-.19-.37-.37-.54-.48.17.19.35.34.54.48Z"/>
        <path class="cls-3" d="m224.17,79.86c0-.37-.12-.65-.27-.89-.05.25,0,.53.27.89Z"/>
        <path class="cls-3" d="m222.11,72.61s.01.03.02.04c.07-.07.04-.08-.02-.04Z"/>
        <path class="cls-3" d="m220.55,68.05l.05.07c.04-.07.04-.11-.05-.07Z"/>
        <path class="cls-3" d="m223.9,78.97c.12-.67.95-1.07-.21-1.61l-.09.19c.09-.52-.44-1.12-.63-1.65-.07.08-.13.16-.17.26.06.27.12.64.2,1.21-.04.71.53,1.02.9,1.61Z"/>
        <path class="cls-3" d="m191.99,34.93c-.07.18.34.44,0,0h0Z"/>
        <path class="cls-3" d="m196.92,38.77c-.13-.15-.27-.3-.41-.46.11.17.22.33.41.46Z"/>
        <path class="cls-3" d="m210.8,57.66s-.02-.08-.02-.12c-.11.02-.05.09.02.12Z"/>
        <path class="cls-3" d="m196.12,37.9c.13.13.26.27.39.41-.1-.15-.2-.3-.39-.41Z"/>
        <path class="cls-3" d="m207.46,51.41s-.02-.07-.03-.1c0,.03.01.06.03.1Z"/>
        <path class="cls-3" d="m7.86,72.33c.11-.5.46-.67.72-1.07-.19-1.24-.85,2.02-.79.36-.18.44-.24.82-.29,1.17l.82-.38c.13-.95-.43.49-.46-.08Z"/>
        <path class="cls-3" d="m76.61,10.45l.22-.02c-.23-.21-.14-.34-.95-.2-.49.64.73.87-.21,1.73.2-.12.53-.22.85-.28-.59-.19-.28-.73.1-1.22Z"/>
        <path class="cls-3" d="m76.52,11.68s.03.01.04.02c.07.04.14.06.22.08.16-.06.32-.09.47-.1-.16-.06-.43-.05-.73,0Z"/>
        <path class="cls-3" d="m15.67,57.71c.13-.16.24-.31.35-.44-.25.17-.33.3-.35.44Z"/>
        <path class="cls-3" d="m159.04,8.04c.25.02.49.04.69.04-.36-.09-.55-.09-.69-.04Z"/>
        <path class="cls-3" d="m87.8,7.49c.19,0,.38-.02.58-.05.11-.04.21-.07.35-.12-.31.06-.62.1-.93.17Z"/>
        <path class="cls-3" d="m56.04,28.02c-.05-.8-.22.21-1.09.3l-.4.71c.62-.27,1.06-.71,1.49-1.01Z"/>
        <path class="cls-3" d="m7.43,72.82s.04.02.06.03c0-.02,0-.04,0-.06l-.06.03Z"/>
        <path class="cls-3" d="m39.34,41.42c-.11.06-.21.12-.31.18.08-.02.18-.07.31-.18Z"/>
        <path class="cls-3" d="m80.86,10.45l2.76-.86-.85.1c-.27.45-1.66.24-1.9.76Z"/>
        <path class="cls-3" d="m66.44,22.5l.41.27c1.01-1.02,2.37-1.61,3.68-2.12,1.3-.53,2.5-1.1,3.27-2.09,3.66.12,1.52-2.13,4.9-1.95l-.17-.16c4.79-1.66,9.86-2.96,14.88-3.97,5.02-1.02,9.98-1.82,14.63-2.68v.3c7.59-.51,15.08-.66,22.51,0,7.42.62,14.79,1.92,21.9,4.28,1.42.15.81-.73,2.07-.68.5.16,1.63.56,1.52.9-1.03-.15-.59.35-.96.37,1.6.55,3.51,1.62,5.05,1.81l-1-.92c.62.04,1.42.51,1.91.73-.3.14.22.91-.25.84,3.4.1,2.07,1.43,4.68,2.09.92-.73,4.29.06,6.63.48l.9.82c-1.36-.78-.32.64-1.99-.33,1.27,1.02,2.76,1.41,4.01,2.3-.13-.36.11-.61.7-.4.72.62.53,1.1,1.4,1.71l-1.05-.3c.4.7,1.17.6,1.76.91-.05.47,1.25,1.38.75,1.62,1.49.34,1.72.9,3.19,1.49-1.05-1.28.66-.21.72-.6l-1.59-.91c1.93,1.7-.73-.42-.97.29-.8-.97,2.02-.02.31-1.09,2.18,1.11,2.45,1.6,4.76,2.66-1.27-.81.51-.2,0-.87,1.53,1.15.22.49.41,1.22.83.62.88,1.17,1.96,1.35,1.14,1.26-.53.25-.07,1.03-.75-.04-3.29-3.34-3.88-1.82-.68-.53-1.9-.64-2.89-1.37.38.39.81.92,1.31,1.4.48.5,1.02.97,1.65,1.23l.6-.66c.82.61,1.36.26,1.89.77-.48-.03-.13.67.53,1.15-.1-.25-.37-.44-.2-.5,1.2.93,1.75.61,3.25,1.66-1-1.15-1.06-1.56-1.9-2.78.69-.23.82.58,1.51,1.07-.15-.02-.29-.12-.19.14l.87.35c1.27,1.43-.77.53.21,1.76.45,1.1,1.27.78,1.67,1.56,0-.08,0-.16,0-.23.13.13.21.23.27.31,0-.01,0-.03.02-.04.79.61,1.54,1.38,2.07,1.24-.07.22.66.58.99.72.52.27,1.86.85,1.9,1.97-.02-.01-.03-.03-.05-.04.82.94,1.26,1.86.91,1.82l1.19,1.63-.6.24c1.32,1.26,1.5.87,2.76,1.45.54,1.26,2.22,2.84,2.92,3.41.07.13.2.31.44.59l-.26-.76c.83,1.18.98.85,1.54,1.61-.07-.19-.06-.24.18.25.08.14.18.29.29.47-.08,0-.2-.18-.3-.37l-.06.26c.15,1.3,1.36,1.2,1.84,2.37-.08-.09-.23-.23-.29-.34.25.67.08,1.97.67,1.92.03.17.25.31.49.44l.2.47c-.09-.19-.15-.34-.2-.47.32.17.67.3.58.41.29.51.6,1.02.86,1.55.1.33.39.68.66.96l-.06.39c.36.53.24.61.14.58.19,1.18.74,1.85,1.28,2.56.53.72,1.09,1.46,1.33,2.71.59.21.28-.77.44-.95.46.18,1.38,1.27,1.91,1.78.04,1.2.87,4.38-.12,4.23.68,1.82.24-.76.88.02l.06.22c-.16-.67-.13-1.26.01-1.74.35-.33,1.19,1.23,1.26,1.79l-.74-.1c.91,1.6,1.65.9,2.67,1.76.28,1.49-.57.88-1,1.37l.65,1.41-.46.15c.44.9.95.99,1.16,2.38-.72-.83.15,2.11-.82.96.06.77,1.03.73.5,1.28.63.38.08-.73.12-1.14.64-.51.8,1.53,1.19,2.38-.35.17-.59-.48-.57.62.33.15.73.76.5,1.45.47-.1.35,1.18.44,1.79-.05-.69.09-1.75.59-1.39.3.49.49.93.68,2.16l.05-.88c.94.93-.19,1.86.28,3.27-.39-.57-.45-.95-.88-1.42.33.64.89,1.89,1.28,2.94l-.56,1.32c.37.11.12,1.38.6,1.34-.15,1.56-.72-1.17-1.08-1.28-.12,1.94,1.01,1.45.4,3.35l-.48-.57c0,.61.33,1.81.11,1.9.16,0,.08-.31.06-.69.99.31.84,2.79,1.83,2.53v-.86c.31,1.3.95,2.24.61,3.27-.32.78-.68-.55-.94-1-.06,1.24,1.1,1,1.01,2.49.16-.78.51-.64.77-.16.06-.87.24-2.7-.17-2.37l-.1.32c-.26-.08-.36-.55-.49-.78,0-1.18.44-.57.63-.81.04-1.98-1.01-.12-1.08-1.92l.18-.25c-.31-.85-.41-2.17-1.07-2.35.56-.84-.48-1.98-.19-2.87,1.37-.33.28,3.02,1.09,3.97.23-.96.71.49,1.05.87-.25-.99-.53-1.97-.86-2.94.17-.25.77-1.21.2-1.69v.24c-.31-1.16-.81-.77-.79-1.81.1-.17.38.1.48.17-.02-.96-.44-.73-.67-1.33-.02-.95.65.38.68-.43-.72-1-.13-1.75-.37-2.68-.71.54-1.84-3.46-2.12-1.32-.32-.7-.67-1.38-1.04-2.06.23-.78,1.47,1.24,1.98.48.14.59.23,1.19.35,1.78.45-.25.13-1.16-.28-2.16-.41-1-.82-2.1-.44-2.83-.23-.95-.3-.67-.35-2.6l-.76.57c-.07-.97.28-1.42.42-1.51-.23-.52-.37-1.01-.51-1.52.17.09.34.23.5.55.24-.85,0-.99-.34-1.15-.34-.3-.53-.86-.73-1.43l.5.4c-.2-.32-.45-.71-.61-.69-.09-.23-.19-.45-.33-.64-.08.21-.43.77-.35,1.65-.44-2.21-1.3-3.72-1.47-5.78.26-.05.91.55.83.32-.3-.94-1.21-1.72-1.51-1.45-.13-.18-.21-.32-.28-.44.11-.26.22-.57.04-.98.02-.13,0-.31-.12-.61-.77.06-1.32-1.7-1.78-1.89.14.41.39.87.66,1.32-.77-.44-1.56-.77-1.51-1.47,1.06,1.02-.07-1.68,1.11.09.07-1.76-.91-.38-1.45-1.9l-.22-1.06c.52-.13,1.08,1.3,1.12,1l-.42-.58c.74.41,1.79,2.9,3.07,4.08l-1.32-3.07c-.65-.84-1.31-1.77-1.92-2.74-.63-.96-1.2-1.98-1.88-2.92-1.3-1.9-2.6-3.71-4.15-4.8l.1.11c-.08-.02-.17.01-.36.09v-.21s-.72-.34-.72-.34c-.09-.93-.88-2.22-1.4-3.44q.25.83,0,1.12c-.51.19-.76.23-1.35-.81.28-.24.73.34.41-.53.14.47-.31.31-.67-.06-.23-.67-.9-1.57-.62-1.82.27.18.33.46.42.65.27.18-.54-1.2.27-.67l-.85-.88c-.24-.74.68.05.64-.29-1.54-1.38-2.87-1.6-4.26-2.79.2-.07.82-.61.63-.46-.79-1.21-2.75-1.57-3.9-2.67.33,0,.68.49,1.11.76-1.56-1.9-3.21-3.42-4.7-5.04-.79-.77-1.56-1.54-2.33-2.34-.38-.41-.76-.82-1.15-1.24-.4-.4-.8-.82-1.2-1.25l-1.47-.07-.62-1.18c-3.63-3.31-7.07-4.98-11.22-7.01-1.28-.67-.46-.94-.94-1.49-1.38-.8-2.37-1.04-3.34-1.27-.49-.11-.97-.21-1.51-.36-.54-.13-1.14-.3-1.84-.57.48-.06,1.44-.42.27-1-.32.12-.63.4-1.31-.08l.49-.06c-.53-.65-1.32-.67-2.71-1.39-1.28-.5-2.58-.9-3.87-1.09-1.3-.18-2.57-.23-3.77-.17-2.25-.85.53-.79.15-1.1,1.51.87,1.17.26,1.62.11-.94-.08-2-.33-2.27-1.02-1.22-.34-1.76-.54-3.07-.52.66,0,1.08.46.44.55-.91-.54-3.51-.99-3.18-1.67-5.82-1.43-12.39-2.82-18.78-3.41-1.11.28.8.23.18.44-1.6.35-1.21-.38-2.49-.1l.55-.36c-1.86-.23-3.89.45-5.69.72.32-.46-1.47-.41.04-.66-.88.06-1.9-2.04-2.61-1.63l.96,1.96c-.05.19-1.28.05-1.16.18-.76-.39-1.71-.88-2.24-.86-.26-.5,1.08-.4,1.82-.36.12-.83-2.49-.55-1.42-1.3-1.59.16.23.42-.72.74l-1.39-.15,1.07.25c-1.15.27-1.53.9-3.08.47-.52.27-1.04.58-1.55.87-.19-.64-1.16-.05-1.98-.16l.49-.44c-1.09.08-1.51,0-2.21-.2.57-.6,1,.08,1.22-.47l-1.21-.12c.03.36-.7.72.17.87-1.05.78-1.6,1.41-4.35,1.61-1.31-.5,1.28-.68.7-1.25-2.91.03-3.29,2.06-4.95,2.18-2.14.06-1.93.64-4.04,1.03.6-.53-1.57-.21-2.03-.5l.75-.61c-.62.26-1.27.23-1.14-.12.23.55-2.65,1.09-4.04,1.7l.36.42c-1.09.44-2.57,1.13-3.79,1.3-1.72.63-1.2.96-2.4,1.86-.86-.21-.94-.74-.84-1.33.54.11,1.3-.27,2.11-.34,1.05-.54,1.97-1.1,2.9-1.64.94-.51,1.89-.99,3.06-1.1.73-1.38-1.51.45-2.7.34.02-.08.09-.12.17-.15-.1.02-.19.04-.28.03.78-.35,2.06-.86,2.15-1.49-1.35.42-.72,1.39-2.54,1.31-1.17.64-2.43-.04-3.21.11-.71.67-.49,1.6-2.56,2.01l.7-.9c-2.3.67-.81,1.22-2.91,1.88.76-.17-.51.86.89.42-.58.57-2.07,1.13-3.26,1.32-.26.19.01.24.03.47,1.39.03,1.83-1.08,3.06-.78l.65-.97c1.25-.09,1.53.43.9.91.32-.12.58-.3.86-.25.51.99-1.52.02-1.64,1.05.26-.12.53-.23.79-.33.55.55-1.71,1.19-2.77,1.49-1.28.07-2.4.32-2.65-.12.5-.27,1.01-.5,1.52-.75-.97-.13-1.95.93-2.87,1.25-.08-.04-.19-.06-.31-.05.06.02.11.06.12.1-.2.05-.4.05-.59,0-.82.27-1.89.99-2.68,1.16l.26.38v-.28c.73-.3,1.83-.39,1.4.13-1.52.93-2.17.28-2.71.07.12-.79,1.6-.68,2.36-1.2-.77-.47-1.7.61-3.58.89.39-.98,1.98-.81,2.09-1.61-1.43.45-1.58,1.1-3.11,1.52.05-.4,1.45-1.02,1.18-1.39l-1.02.19c2.29-1-.77-.7.97-1.62-.98.07-.95,1.06-2.35,1.12.47.16,1.67.32.63,1.07-.47.1-.92.25-1.38.37-.69-.09,1.02-1.35.05-1.25l-1.25.86c.14.18.83,0,.55.46-.88.14-.91,1.38-1.67,2.09-.73.3-1.31.56-1.68.45-.75.75-1.69,1.41-2.61,2.05-.92.65-1.79,1.33-2.44,2.05.87-1-.42-.65-1.25-.58,1.22-.79.89-1.41.58-1.76-.75.5-.89,1.42-.39,1.41-1.43.47-.66.9-2.01,1.16-.85.22,0-.82-.38-.9-1.39.81.06.97-1.51,1.72.03-.13.15-.24-.03-.28-.88.36-1.58,1.16-1.55,1.57-1.33-.23-2.29,1.63-2.62.77-1.77,1.45.56.22.35.73-.56.83-2.16,1.52-2.66,1.73.45-.34.71-.85,1.25-1.03l-.75-.24c-2.57,1.29-.64,2.2-3.17,3.34.95-1.08.1-.65.4-1.41-.27.36-2.08,1.52-.76,1.11-.84.59-1.47.94-2.1,1.28-.57.75-1.25,1.49-1.4,2.14-1.13.87-2.23,1.22-2.93,1.46-1.03,1.13-2.12,2.08-3.26,3.02-1.15.92-2.26,1.94-3.22,3.24l.19-.14c-1.83,1.66,1.36-.18-.46,1.6-.15-.39-.52-.21-.95.11-.42.33-.91.8-1.34.97-2.46,2.04-3.2,4.43-5.45,6.34-.11-.11-.15-.4.2-.84-1.56,1.6-2.57,3.1-3.78,4.7l-.03-.13c-1.17,1.14-2.07,2.4-2.82,3.77-.73,1.39-1.4,2.81-2.19,4.28.06-.28-.16-.5-.13-.73-.99,1.36-2.48,3.64-2.42,5.01-1.59,1.41-.41,1.27-2.25,3.22-.19.07,0-.28.06-.45-.83,1-1.1,1.87-1.74,2.99-.78,2.77-.11,3.8-1.62,6.7-1.03-.23.53-1.95-.21-2.34-.08.68-.1,1.28-.67,2.03-.17-.65-.19-.2-.4-.69-.55.54,0,3-.08,2.95.18.11.36-.08.55-.7.34.94-1.05,3.03-1.32,4.61.17-.49.92-1.93,1.18-1.2-.94,1.91-.12,2.91-.18,4.41-1.02,1.7-.42-1.61-1.22-1.49-.35.23-1.14.81-1.17-.06-.67,1.64-.47,3.03-.69,4.59l-.19-.1c-.24,1.07-.28,2.23-.38,3.32-.07,1.1-.15,2.14-.55,2.99l.43-.9c.05.38-.24,1.44.05,2.11-.32-.13-.92,1.2-1.07.57.86,1.15-.17,5,.67,6.2-.34.53-.73.01-.95-.2.32-1.34.61-1.76.29-2.54-.17,1.13-.59,1.91-.8,1.7.46,1.23.46,3.96,1.05,4.59-.44.78-.72,1.55-1.25,1.2.04,3.5,1.86-1.53,1.55,2.35-.68,1.73-.61-1.8-.98.64l-.06-.46c-1.59,1.67.95,1.33.75,3.31-.82.23-.46-1.43-1.14-.08.11,1.86,1.29,2.7.97,4.52l-.33-.29c0,1.17-.14,3.45-.05,4.62-.16.06-.14-.11-.18-.34-.27,2.17.42.9-.11,2.68l.39.5c.26-.9.63-2.62.16-3.73.47,1.11.99-1.76,1.67-1.2l-.28-.22c1.21-2.89,1.46-6.57,2.23-10.15-.64-2.37.76-3.83.47-6.34-.86-.51-.11-.48.05-2.6-.07,1.12.68.24.92-.43-.17-.45-.18-.95-.18-1.47.34-.38,1.67-2.8,1.24-3.88.56-1.18.23.36.36.67.57-.4-.15-1.09.25-1.44,0,0,.09.04.11.18.37-1.91.96-2.96,1.56-4.89-.86-.41.22-2,.18-2.96.2.37.66-.99,1-1.48l-.32-1.25c-.18-1.2.89-1.28,1.07-2.69l-.27.26c.05-.53.42-1.38.89-2.18.51-.79,1.1-1.54,1.51-1.91.94-4.68,2.87-7.84,4.97-10.88,2.21-2.99,4.55-5.89,7.24-9.97.15-.68-.65.11-.69-.54.49-.88.65-1.05,1.21-1.77-.69.49-.37.57-.51.34-.22.42-.41.86-.61,1.29-.09.02-.03-.13-.21-.09-.2.43-.37.99-.76,1.46.3-.84-.1-1.44.79-2.26.02.13-.04.27-.18.56.61-.77.38-1,.97-1.48.67-.62.37-.57.67-.49l2-1.98c.26-1.59,1.98-2.4,2.31-2.7.26.63-1.05,1.53-1.03,2.43l.98-.48-.33-.36,1.02-1,.02.12c-.04-.25-.06-.51.3-.68.09,0,.28-.02.2.12.15-.32.3-.64.47-.94-.03.77.71-.55,1.04-.06,1.23-1.11,1.77-2.02,2.38-2.83.61-.8,1.24-1.52,2.54-2.26-.52.14,0-1.32.76-1.83.48-.25.66-.24.57.14l.66-1.01c1.67-.34,2.37-1.7,4.21-2.84l.08.27c.41-.75.91-1.49,1.92-2.14l.14.53c1.37-.61.22-1.53,1.7-2.26-.34-.43-1.31-.03-1.76-.34.65.2,2.07-.81,1.51-.87,1.19-1.13.93-.65,1.12-.62l.58-.83c.95-.65.71.37.56.87.52-1.09,1.69-1.46,2.75-2.02l-.27.47,1.37-.79c.62-.92,1.81-1.77,3.08-2.24l-.41,1.09c.99-.16.28-.46.43-.69,1.08-1.06,1.61-.81,2.47-.86.82-.93,2.01-1.22,3.11-1.55,1.1-.34,2.15-.64,2.81-1.57Zm144.36,34.49l-.02-.25c.36.37.61.55.02.25Zm-7.3-11c1.22,1.07.62.89.54,1.1-.81-1.35-1.55-1.88-2.23-3.11.03.26-.09.42-.14.55-.32-.45-.54-.98-.38-1.36.99.08,2.31,3.62,2.2,2.81Zm18.11,24.43c-.07-.04-.15-.08-.22-.13h0s.22.13.22.13Zm-3.82-7.31c.08-.18.06-.39,0-.63-.1.22-.17.42,0,.63Zm-7.47-14.31c.04-.48-.55-1.12-.97-1.58.14.26.38.73.97,1.58ZM123.12,3.07c.49-.11,1.43-.39.59-.63-.41.25-1.19-.21-1.54.18-.05-.02-.05-.02-.08-.04.49.25.89.47,1.03.49Zm-46.06,10.34c-.02-.31.2-.73-.1-.86.04,0,.09-.02.14-.02-.15-.05-.27-.1-.21-.19-.38.08-.79.15-1.01.33.23.95-.48,1.37,1.18.75Z"/>
        <path class="cls-3" d="m91.13,4.95c-.18.06-.32.09-.43.13.12-.03.25-.07.43-.13Z"/>
        <path class="cls-3" d="m75.95,12.64c-.01.07.45,0,1.01-.09-.15-.07-.44-.07-1.01.09Z"/>
        <path class="cls-3" d="m223.07,96.6l-.1-.46-.29.92c.33,1.52.75,1.61,1.23,2-.47-1.39-.21-2.24-.4-4.01-.12.52-.29,1.04-.45,1.55Z"/>
        <path class="cls-3" d="m226.28,95.73c.13-.16.44-.58.45-.82l-.31-.23c-.05.35-.07.7-.15,1.05Z"/>
        <path class="cls-3" d="m224.95,76.68l.13,1.56c.37.41.37-1.44-.13-1.56Z"/>
        <path class="cls-3" d="m221.41,84.25l.44.7c.15-.72-.03-1.63-.42-1.71.37.86-.15.26-.02,1.01Z"/>
        <path class="cls-3" d="m223.88,72.67c-.7-.28-.25-1.55-.87-1.68.28.33.29,1.78.87,1.68Z"/>
        <path class="cls-3" d="m218.91,75.3c-.4.6.29,1.18.41,2.09-.2-.73.04-1.91-.41-2.09Z"/>
        <path class="cls-3" d="m219.43,65.55c.41-.1.66.51.84,1.21-.21-.17-.45-.25-.63-.52.76.98.73,1.09,1.27,1.91-.09-1-.48-2.43.05-2.49-.66-.52-1.54-1.09-1.53-.12Z"/>
        <path class="cls-3" d="m218.18,73.23c.09.77-.13,1.31.15,2.17.22-.23.57-.65.16-1.64l.58.21c.02-1.05-.49.56-.9-.74Z"/>
        <path class="cls-3" d="m218.45,61.05l.03.53c.43.39.78.93,1.13,1.47.33.51.66.95,1.08,1.12-.31-.63-.72-1.32-1.16-1.92-.42-.56-.8-.98-1.08-1.19Z"/>
        <path class="cls-3" d="m217.76,69.41l-.68.11c.29,1.03.18-.15.47.14.02.32.12.77.32.93-.52-1.1.48-.27-.1-1.19Z"/>
        <path class="cls-3" d="m215.71,66.49l-.83-1.08-.22,1.25c.87,1.3.41-.11,1.05-.17Z"/>
        <path class="cls-3" d="m215.4,64.81l.05-.19-1.85-1.35c.95.88.95,1,1.81,1.54Z"/>
        <path class="cls-3" d="m205.16,41.02c-.37,0,.13,1.2.05.58.34.04-.43-1.51-.05-.58Z"/>
        <path class="cls-3" d="m204.01,48.31c-.15-.62-1.67-1.86-2.35-2.38.37.34.91,1.02,1.39,1.56.46.56.85,1,.96.82Z"/>
        <path class="cls-3" d="m201.39,45.72c.05.04.16.12.27.22-.11-.11-.2-.18-.27-.22Z"/>
        <path class="cls-3" d="m174.45,24.08c-.08-.04-.17-.06-.26-.06.09.02.17.04.26.06Z"/>
        <path class="cls-3" d="m175.24,24.37c.42.38,1.44.82,1.77.66-.82-.34-1.52-.69-2.56-.95.35.17.63.61.78.29Z"/>
        <path class="cls-3" d="m168.39,20.38c.45.02.91.37.91.05-.15-.22-1.07-.35-.91-.05Z"/>
        <path class="cls-3" d="m116.24.78c-.83-.14-1.31.01-1.07.42.92-.05.41-.27,1.07-.42Z"/>
        <polygon class="cls-3" points="114.13 1.34 114.01 1.14 113.45 .85 114.13 1.34"/>
        <path class="cls-3" d="m108.43,1.14c.04-.07.17-.16.32-.22-.31.09-.58.17-.32.22Z"/>
        <path class="cls-3" d="m108.91.88s-.11.03-.16.04c.05-.01.11-.03.16-.04Z"/>
        <path class="cls-3" d="m109.3.98l.04-.23c-.09.04-.26.09-.43.13.15-.03.32-.02.38.1Z"/>
        <path class="cls-3" d="m106.72,1.23l1.14.54c1.09-.42-1.31-.21-.27-.99l-.87.46Z"/>
        <path class="cls-3" d="m103,1.88c-.53-.03-1.12.25-1.67.45-.55.23-1.04.38-1.39.05-2.81.89.87,1.14-2.35,1.98,3.15-.14,1.32-1.73,4.15-1.76-1.41-.28.84-.49,1.27-.73Z"/>
        <path class="cls-3" d="m103.66,3.08c.12-.4-1.18-.26-1.55.04.38,0,1.1.43,1.55-.04Z"/>
        <path class="cls-3" d="m97.41,3.12c-.31-.04-.62-.1-.93-.13l-.18.29c.37-.07.74-.11,1.12-.16Z"/>
        <path class="cls-3" d="m94.06,3.63l.76-.61c-.25.23-1.53.46-.76.61Z"/>
        <path class="cls-3" d="m89.33,4.17c-.84.05-1.3,1.22.32.59l-.39.06c.06-.18-.93-.3.07-.64Z"/>
        <path class="cls-3" d="m79.34,8.79c.54-.15,1.12-.48.95-.65l-1.39.68.44-.03Z"/>
        <path class="cls-3" d="m80.35,11.07c.68.43,1.32-.49,2.33-.61-1.11.24-1.01.12-2.33.61Z"/>
        <path class="cls-3" d="m77.39,8.55c.31-.38.96-.46,1.35-.54-.3-.29-1.27.18-1.35.54Z"/>
        <path class="cls-3" d="m75.16,9.6c-.56-.06-.02-.36-.44-.39-1.12.1-2.16.6-2.6,1.14.36.14.99.65.7,1.11,1.49-.87,1.92-2.23,3.02-1.7l.98-1.52c-1.36.32-.73,1.08-1.65,1.35Z"/>
        <path class="cls-3" d="m79.11,10.33l-.97-.02c.29.27-.34.57-.75.84.49.66,1.25-.59,1.72-.82Z"/>
        <path class="cls-3" d="m66.57,13.77c-.57.32-1.13.65-1.68,1.01l.59-.25c.36-.26.73-.51,1.1-.76Z"/>
        <polygon class="cls-3" points="65.32 14.07 65.17 13.88 64.02 14.93 65.32 14.07"/>
        <polygon class="cls-3" points="63.37 14.75 63.59 14.68 64.53 13.98 63.37 14.75"/>
        <path class="cls-3" d="m59.67,16.51l.47.12c.39-.32,1.44-.47,1.15-.81-.31.33-1.23.79-1.62.69Z"/>
        <path class="cls-3" d="m52.98,30.58c.14-.37-.13-.42-.41-.47l-.1.77c.11-.11.33-.34.51-.31Z"/>
        <path class="cls-3" d="m50.65,31.12l-.72,1.32c1.33-.83,1.21-1.37,2.27-2.25-.59.17-.98,1.02-1.68,1.31l.14-.37Z"/>
        <path class="cls-3" d="m30.36,49.45c-.24-.36-.4-.08.06-1.04-.35.62-.74,1.14-1.16,1.67-.4.54-.82,1.11-1.3,1.75.37-.05,0,1.17.29.61l.89-1.56.06.39c1.01-.79.13-.94,1.17-1.82Z"/>
        <path class="cls-3" d="m1.7,115.43c-.2-.18-.39.04-.58.26.19,1.12.54-.48.58-.26Z"/>
      </g>
      <g>
        <path class="cls-4" d="m123.71,189.9c.02-1.23-.07-2.27-.27-3.13-.2-.86-.48-1.6-.85-2.22l4.02-1.06c.36.65.69,1.56.96,2.74.28,1.18.4,2.61.38,4.29-.03,1.9-.35,3.64-.98,5.23-.62,1.59-1.51,2.96-2.66,4.11-1.15,1.15-2.54,2.03-4.17,2.64-1.62.62-3.45.91-5.48.88s-3.76-.37-5.35-1.02c-1.59-.65-2.95-1.55-4.07-2.7s-1.97-2.55-2.56-4.18c-.59-1.64-.87-3.46-.84-5.46.02-1.71.21-3.12.54-4.22.34-1.1.7-2,1.08-2.69l4.03,1.3c-.38.69-.71,1.45-.97,2.29-.27.84-.41,1.78-.42,2.82-.02,1.1.13,2.13.44,3.09.31.97.81,1.81,1.51,2.55.7.73,1.6,1.31,2.7,1.74,1.1.43,2.44.66,4.02.68s2.84-.16,3.95-.54c1.11-.38,2.04-.93,2.77-1.62.73-.7,1.28-1.52,1.66-2.46.37-.94.57-1.96.59-3.06Zm-21.57-21.11c.03-1.79.34-3.44.95-4.95.61-1.51,1.48-2.81,2.6-3.89,1.12-1.08,2.51-1.92,4.14-2.52,1.64-.6,3.5-.89,5.58-.86s3.84.38,5.43,1.04c1.59.66,2.94,1.57,4.05,2.7s1.95,2.48,2.53,4.02c.58,1.54.85,3.21.83,5s-.34,3.44-.93,4.95c-.6,1.51-1.46,2.81-2.58,3.89-1.12,1.08-2.5,1.92-4.12,2.52-1.62.6-3.48.89-5.56.86s-3.85-.38-5.45-1.04c-1.61-.66-2.97-1.57-4.09-2.7-1.12-1.14-1.97-2.48-2.55-4.02-.58-1.54-.85-3.21-.83-5Zm13,6.96c1.5.02,2.8-.14,3.91-.48,1.11-.34,2.04-.82,2.79-1.42.74-.6,1.3-1.31,1.67-2.12.37-.81.57-1.68.58-2.62s-.15-1.77-.5-2.59c-.35-.82-.89-1.53-1.61-2.13-.73-.6-1.64-1.08-2.74-1.44-1.1-.36-2.4-.56-3.9-.58s-2.89.14-4.01.48c-1.13.34-2.06.82-2.81,1.42-.74.6-1.29,1.31-1.65,2.12-.36.81-.55,1.68-.56,2.62s.16,1.81.52,2.61c.36.81.91,1.51,1.63,2.11.73.6,1.65,1.08,2.76,1.44,1.12.36,2.42.56,3.92.58Zm-12.32-23.25l.08-5.49,20.91.31.15-10.17,4.33.06-.23,15.66-25.24-.37Zm.27-18.75l.24-16.42,4.25.06-.16,10.94,5.77.08.14-9.89,4.21.06-.14,9.89,6.77.1.16-11.06,4.25.06-.24,16.54-25.24-.37Zm.3-20.71l.08-5.49,20.91.31.15-10.17,4.33.06-.23,15.66-25.24-.37Zm.27-18.75l.08-5.49,20.91.31.15-10.17,4.33.06-.23,15.66-25.24-.37Z"/>
        <path class="cls-4" d="m164.57,183.45c-.66-.46-1.54-.98-2.64-1.56-1.1-.58-2.21-1.07-3.32-1.49l-1.66,3.94c.8.25,1.61.57,2.43.96.82.39,1.54.74,2.15,1.07l-6.62,6.27c-1.08,1-2.02,1.75-2.82,2.24-.79.5-1.63.74-2.51.72-.75-.01-1.36-.23-1.83-.67-.47-.43-.71-1.09-.69-1.97.01-.72.27-1.33.77-1.83.5-.5,1.11-.74,1.83-.73s1.29.19,1.8.53c.5.34.9.77,1.18,1.28l2.64-2.49c-.52-1.08-1.24-2.01-2.16-2.8-.92-.79-2.05-1.19-3.39-1.21-.88-.01-1.71.16-2.47.52-.77.36-1.42.86-1.97,1.49-.54.63-.97,1.39-1.3,2.26-.32.88-.49,1.82-.5,2.84-.03,2.32.51,4.17,1.62,5.53,1.12,1.37,2.65,2.06,4.6,2.09,1.04.02,2.03-.22,2.98-.7.94-.48,1.74-1.02,2.39-1.63.93,2.1,2.02,3.61,3.28,4.54,1.26.93,2.7,1.4,4.33,1.43,2.43.04,4.37-.78,5.81-2.44,1.44-1.66,2.18-3.99,2.23-6.98.03-1.98-.25-3.64-.85-5-.28-.65-.59-1.22-.91-1.74l-2.91,2.75c.07.12.13.24.19.37.39.82.57,1.79.56,2.91-.02,1.52-.39,2.75-1.1,3.67-.71.93-1.76,1.38-3.15,1.36-1.2-.02-2.16-.35-2.89-.98-.73-.64-1.28-1.39-1.67-2.25l6.8-6.42,3.44-3.25,2.23-2.13.09-6.17-5.97,5.64Z"/>
      </g>
      <path class="cls-4" d="m166.96,162.74c.02-1.23-.07-2.27-.27-3.13-.2-.86-.48-1.6-.85-2.22l4.02-1.06c.36.65.69,1.56.96,2.74.28,1.18.4,2.61.38,4.29-.03,1.9-.35,3.64-.98,5.23-.62,1.59-1.51,2.96-2.66,4.11-1.15,1.15-2.54,2.03-4.17,2.64-1.62.62-3.45.91-5.48.88s-3.76-.37-5.35-1.02c-1.59-.65-2.95-1.55-4.07-2.7-1.12-1.15-1.97-2.55-2.56-4.18-.59-1.64-.87-3.46-.84-5.46.02-1.71.21-3.12.54-4.22.34-1.1.7-2,1.08-2.69l4.03,1.3c-.38.69-.71,1.45-.97,2.29-.27.84-.41,1.78-.42,2.82-.02,1.1.13,2.13.44,3.09.31.97.81,1.81,1.51,2.55.7.73,1.6,1.31,2.7,1.74,1.1.43,2.44.66,4.02.68s2.84-.16,3.95-.54c1.11-.38,2.04-.93,2.77-1.62.73-.7,1.28-1.52,1.66-2.46.37-.94.57-1.96.59-3.06Zm-21.18-17.82l.08-5.69,25.37-8.97-.08,5.81-5.84,1.88-.13,8.97,5.78,2.05-.08,5.73-25.1-9.78Zm15.38.71l.09-6.41-3.38,1.11c-1.05.36-2.1.69-3.16,1-1.06.31-2.13.6-3.2.87v.08c1.01.31,2.04.64,3.09,1.01,1.05.36,2.12.74,3.21,1.13l3.35,1.21Zm10.13-18.56l-25.24-.37.08-5.49,10.62.16-10.49-8.85.1-6.81,10.88,9.57,14.37-10.01-.1,6.77-10.88,7.29,2.17,2.12,8.57.13-.08,5.49Zm-24.78-32.02l.08-5.69,25.37-8.97-.08,5.81-5.84,1.88-.13,8.97,5.78,2.05-.08,5.73-25.1-9.78Zm15.38.71l.09-6.41-3.38,1.11c-1.05.36-2.1.69-3.16,1-1.06.31-2.13.6-3.2.88v.08c1.01.31,2.04.64,3.09,1.01,1.05.36,2.12.74,3.21,1.13l3.35,1.21Zm-15.11-18.93l.14-9.57c.02-1.42.25-2.66.68-3.74.43-1.08,1-1.97,1.72-2.68.72-.71,1.55-1.24,2.51-1.59.95-.35,1.98-.51,3.07-.5,1.02.01,1.91.18,2.7.5.78.32,1.46.72,2.03,1.19.57.48,1.04,1,1.42,1.58.38.58.68,1.14.92,1.68l10.35-6.02-.09,6.29-9.36,4.71-.04,2.92,9.29.14-.08,5.45-25.24-.37Zm11.82-5.28l.03-2.16c.02-1.44-.26-2.63-.83-3.56-.57-.93-1.54-1.41-2.9-1.43-1.2-.02-2.13.34-2.8,1.06-.66.73-1.01,1.8-1.03,3.21l-.04,2.76,7.57.11Z"/>
      <polygon class="cls-4" points="137.72 170.37 137.78 166.24 140.62 163.72 137.86 161.07 137.91 157.11 142.93 161.79 142.88 165.75 137.72 170.37"/>
    </g>
    <path class="cls-2" d="m131.64,168.22c7.83.11,14.04,9.39,13.92,17.21s-6.51,11.24-14.34,11.13-13.47-9.38-13.36-17.2,5.94-11.25,13.77-11.14Z"/>
    <g>
      <line class="cls-3" x1="100.96" y1="160.03" x2="102.7" y2="40.61"/>
      <g>
        <path class="cls-3" d="m110.62,159.74c.49-.36.54-1,.63-1.6-.47.46-.68.95-.63,1.6Z"/>
        <path class="cls-3" d="m111.26,158.13s0,0,0,0c0,0,0,.01,0,.02,0,0,0,0,.01-.01Z"/>
        <path class="cls-3" d="m91.37,40.89c0,.15.01.32.02.5.02-.17.02-.33-.02-.5Z"/>
        <path class="cls-3" d="m113.08,128.96l-.8-.1c0-1.43.92-.4.74-1.73-1.12-.53.15-2.19-.44-2.66.09.01.13-.64.49-.59-.61-.21-.13-.67-.28-1.08-.17-.15-.19.11-.37.21l-.2-.94c.2-.36.57-.45.63-.05.26-2.44,1.02-14.16.75-16.8-.47.33-.17,1.15-.9,1.45-.4-.7.16-1.02-.27-1.34,1.09-.25.28-1.53,1.39-2.04l-.61-.21.38-.34c-.59-3.07-.3-.7-.12-3.42-.07-1.57-.91-2.33-.59-3.2,0,.13-.39.47-.54.06.54-.06-.37-1.09.18-1.28-.06-.4.03-1.69-.72-1.26.37-.21.54-1.36.85-.67.03-.39.14-.76-.02-1.05l-.21.5c-.09-1.31.49-2.02-.16-2.88l-.3.48c-.04-.79-.08-1.44.65-1.74l.21.81c0-1.3-.04-2.09-.41-3.18l-.03.39c-.71-1.39-1.2-8.63-2.1-9.91l-.57.58-.46-1.1c0,.13,1.83.56,1.64.66-.02-2.35-.28-14.56.13-16.72.33-.87.9-.14.99-.13-.2-1.07-.59-.47-.53-1.37.11-.25.44.06.52.2-.06-.4.14-.76-.12-.8-.21.49-.91.27-1.37.48l.08-1.16.44.06c.02-.26-1.2-.68-.95-1.81.22-1.93.1-4.02.23-5.96.27.03.42.44.57.85.02-.26-.04-.66.15-.89-.48.46-.3-.82-.5-.46-1.06-1.44-.05-3.26-.76-4.52-.97-.12-16.71-2.93-17.87-2.95.03-.39.05-.78.15-.89-.27.1-.42.86-.27,1.27l.62.08c.2.94-.37.21-.34,1.13-.51.04-.61-.8-.64-1.54-.07.67-.45,1.32.1,1.6-.22.62-.62-.08-.85.67.14.54.63,1.25.32,1.87h-.09c-.55,1.48.74,2.29.2,3.66l-.17-.15c-.3.48.08,1.44-.25,2.31.11-.25.48-.46.53.07-.34,1-.02,1.69-.43,2.42l.49.71c-.15,3.5.36,17.33.39,20.85l-.08-.14c.17,5.36-.03,16.35.58,21.9-.5.85-.4,2.03-.55,2.92.21-.49.56-.32.53.07-.1,2.72.34.19.51,2.94.41,3.18-.29,15.3-.75,18.1.7,1.52.13,3.4.56,4.89l-.17-.15c.25,1.59-.55,10.58-.32,12.44l.11-.25c.43,1.62-.36,1.39-.63,2.65.81-.16,1.25,1.23,1.31,1.76l-.18-.02c.12.8.8,2.61.89,3.92l-.44-.06c.46,1.1.23,3.15.27,3.94-.21,1.8-1.02,4.56-.47,6.97l-1.29,1.53.12.23s15.23,2.72,18.52-.4l.44.06-.05-.63c.23-.75-.28-1.11.16-1.05l-.07,1.03c.14-.75.37-.22.61.07.05-.32.1-.62.24-.87-.17-.15-.19.11-.28.22-.15-.41-.56-.98-.35-1.47.05-.77.72-.04.78-.94.41-4.76.99-9.38.96-14.2.19-.11.18.02.26.16-.17-1.45-.08-2.74-.26-4.07.2-.36.48-.46.66-.57-.37.21-.29-7.31-.2-7.43Z"/>
      </g>
    </g>
    <g>
      <line class="cls-3" x1="158.34" y1="149.76" x2="159.79" y2="50.18"/>
      <g>
        <path class="cls-3" d="m149.22,120.49s.04.06,0,0h0Z"/>
        <path class="cls-3" d="m147.8,87.79s0-.02,0-.03c-.26-.03-.48-.05-.65-.08l.66.11Z"/>
        <path class="cls-3" d="m149.5,82.56s.04-.02.07-.03c-.16,0-.31,0-.07.03Z"/>
        <path class="cls-3" d="m150.04,99.93s.04.07.13.09c-.06-.03-.1-.05-.13-.09Z"/>
        <path class="cls-3" d="m150.47,130.14s-.01-.01-.02-.02c-.05.02-.09.04-.16.05l.18-.03Z"/>
        <path class="cls-3" d="m150.03,130.03c.19-.11.37.04.42.09.36-.12.38-.25.22-.38-.4,0-.34.24-.64.29Z"/>
        <path class="cls-3" d="m151.33,147.62l-.16-.05s.1.04.16.05Z"/>
        <path class="cls-3" d="m169.76,99.7s.05.06.09.08c.01-.04-.03-.06-.09-.08Z"/>
        <path class="cls-3" d="m151.77,144.87l-.64-.04c.26.03.46.04.64.04Z"/>
        <path class="cls-3" d="m147.14,87.68l-.25-.04c.06.01.14.03.25.04Z"/>
        <path class="cls-3" d="m149.98,77.71c.2,0,.35,0,.48-.02,0,0,0-.01,0-.01l-.49.03Z"/>
        <path class="cls-3" d="m160.46,53.38c-.08,0-.16,0-.25,0l.45.1c-.04-.05-.11-.09-.2-.11Z"/>
        <path class="cls-3" d="m152.84,71.09c-.07,0-.14-.02-.22-.03-.21.11-.27.41-.25.8l.78.03-.31-.8Z"/>
        <path class="cls-3" d="m171.17,64.07l-1.58.69c-.69-2.29.9-3.33-.34-5.3l.34.11c.37-.28-3.16-.49,1.2-3.56h.16c-.03-.11-.34-.11.08-.32l-.97.53c-.39-.33-1.14-.63-1.24-1.06.18-.09.5-.12.75-.12l-.25-1.07,1.02-.31c-.55-.33-2.69-.22-1.49-1.07-1.49.31-.89-.44-1.64-.35.18-.04.46-.14.72-.21-.17-.52-.57-1.5-1.33-1.75,0,0-3.16,1.98-4.76,2.5.41-.72-.18-.19-.68-.06l.37.05c-.37.43-1.31.42-1.57.63.08,0,.17,0,.26,0l-.13-.03c.17-.02.28,0,.37.02.2,0,.36.02.3.14l-.1-.02c.13.18-.02.5-.09.63h-.78c1.49.34-2.31,2.13-2.37,2.56-1,.42.23.98-.27,1.52-.27.86-1.15.42-1.83.84-.5.54.92-.1.97.12l-1.1.64c-.09-.38-.56-.18-.87-.12-.14.56-1.59,1.43-.03,1.62-.76.75-1.39.74-1.47,1.07.29-.1.55-.32.87-.31-.7.29.17.15.32.03.67.47-2.89,2.37-1.17,2.49h-.31c1.28.12,2.52-.03,3.23.3l-.58.21.55.33c-.42.21-.76.1-.91.1.58.54-.13,1.27-.31,1.91l3.5-.63c-.81.53-2.46,1.48-1.34,1.61l-1.18.31c-2.25,1.05.96.77.28,1.2l-1.28.53.03-.54c-.66.53-1.08.74-1.91,1.17.01,0,.02,0,.03,0,.05-.03.11-.05.19-.05l.03.08c.64.08,1.07.36,1.02.75-.19.54.75.98-.62,1.83l1.3.24-.79.64-1.04-.02c.07-.64-.31-1.84-.35-2.66l-.47-.02c0,.49.45,1.05.34,1.37-.21.15-1.3.54-1.99.24l1.01.32c.09,1.63.14,1.64-1.06,3.31l.52-.14c.3.34.6.68-.25.76-.19,1.01-.86,2.06-2.18,2.7l1.22.16c-.07.21-1.93.51-.21.64l.53.47c-.1.29.6.48-.11.81,0,0,0,0,0,0,0,0,0,0,0,0-.04.02-.09.04-.15.06.04,0,.07,0,.1,0-.55.66,1.1,0,.38.76-.87.23,1.55.29,1.27.66l-1.76.35c-1.02.66.74.8.73,1.77-.63.46-2.14.66-3.46.33,1.6.45,1.05.21,1.81.78-.66.08-.8.01-1.4-.12-.78.49.59.32.55.7,1.25.13,3.23.28,3.31.41l.39-.14c.66.41.97.85.33,1.31l-.63-.03.31.5-.8.02.24.71.22-.09c.1.17.37.72-.05,1.02l-.45-.02c-1.4.86.41,1.61.54,2.64l-.91-.15c-.91.34,1.4.12.94.53h-1.12c1.46.39-.32.48-.88.72l1.47-.1-.32.47c-.49.52-1.85.3-2.62.21l1.15.38-1.29.05c1.5.28-.25.26.55.73-.49.03-.77-.09-.98.06l1.81.78-.8-.47,1.89.08c1.43.5-.22.64.31.99l-.56-.24c.45.56-.35.58-.78.89.35-.09.88-.23,1.12,0,.1.17-.67.08-.88.23,1.26.06,1.92.46,1.32.81-.18,0-.35-.02-.47-.04.2.09.53.15.22.3l-1.4-.11,1.33.33c-.39.2.62.51-.32.47l-.28-.12-.36,1.55h-1.12c1.54.18-.6.84,1.33.82-1.05.28.72,1.17-1.44.96-.18,1.02,1.9,1.6.82,2.83-1.85.42-1.27,1.64-1.47,2.43.75,1.57,1.42,2.59,1.99,4.19-2.58.92.85,2.4-.62,3.41l1.02.3c-1.63.66.34,1.74-1.26,2.68.44.24.58.37.62.42.05-.04.24-.11.89-.12-.46.27.1.83-1.19.77l-.13-.07c-1.29-.06.59.84-.53,1.13l1.39-.15-.24.52-.26-.14c3.04,2.3-1.37,3.26,1.41,5.42-1.51-.3.79.43-.86.43-2.09.5.43,1,.98,1.44.08,0,.18,0,.3.03l-.21.76c-2.08-.49,1.73.58-.05.13-1.59,1.98-.04,4.61-.79,6.91l.54-.09c-.11.59.53,1.33-.33,1.76-.86.43,1.35.99,1.43,1.17.92.5-.93.92-.83.71.25.53,2.15,1.04,1.32,1.76-1.78.22,1.71,2-.29,1.99h.17c-1.42.92.96,1.83-.33,2.81,0,0-.15-.02-.28-.06l6.03,2.12,6.68-.48,5.44-1.68-1.1-4.79,2.17-3.78-.58-9.29-1.49-.68c2.66-1.78-.33-4.17,1.57-6.1l-1.29-.06c-.07-.55.73-.51.96-.64-.21-5.16-1.86-10.48-.16-15.1.86-.43.38-1.8,1.29-2.14-1.56-1.53-1.52-3.12-1.34-4.63l.14.06-.24-.71c.11-.03.26-.03.36,0-1.13-.82.02-2.06.5-3.04l.14.06c.32-5.72-2.02-11.06-.13-16.71,2.15-2.61-.72-5.72,1.08-8.72,1.3-.54.42-6.67-.18-7.22Z"/>
        <path class="cls-3" d="m169.57,55.03v.02c.55,0,.35-.03,0-.02Z"/>
        <path class="cls-3" d="m154.48,67.46s.01-.03.01-.04l-.77.14.76-.1Z"/>
        <path class="cls-3" d="m154.14,59.35c-.18.36-.04.38.18.33.03-.13,0-.25-.18-.33Z"/>
        <path class="cls-3" d="m168.57,52.04c.05-.19-.28-.12-.65-.02.06.2.09.33.09.33.13-.11.42-.21.55-.32Z"/>
        <path class="cls-3" d="m161.16,52.71l-.44-.07c.11.11.27.11.44.07Z"/>
      </g>
    </g>
  </g>
</svg>