<?xml version="1.0" encoding="UTF-8"?>
<svg id="Ebene_1" data-name="Ebene 1" xmlns="http://www.w3.org/2000/svg" viewBox="0 0 334.11 59.24">
  <defs>
    <style>
      .cls-1 {
        fill: #00372e;
      }

      .cls-2 {
        fill: #e5006d;
      }
    </style>
  </defs>
  <g>
    <path class="cls-1" d="m204.81,42.67c1.44,0,2.67-.13,3.67-.38,1-.25,1.87-.6,2.59-1.04l1.32,4.71c-.75.44-1.82.83-3.2,1.18-1.38.35-3.06.52-5.04.52-2.23,0-4.29-.35-6.17-1.06-1.88-.71-3.51-1.73-4.88-3.06-1.37-1.33-2.43-2.95-3.18-4.85-.75-1.9-1.13-4.04-1.13-6.43s.37-4.43,1.11-6.31c.74-1.88,1.77-3.49,3.11-4.83s2.96-2.36,4.87-3.09c1.91-.72,4.05-1.08,6.41-1.08,2.01,0,3.67.19,4.97.57,1.3.38,2.36.79,3.18,1.22l-1.46,4.76c-.82-.44-1.72-.81-2.71-1.11-.99-.3-2.1-.45-3.32-.45-1.29,0-2.5.19-3.63.57-1.13.38-2.12.98-2.97,1.81-.85.83-1.52,1.9-2,3.2-.49,1.3-.73,2.88-.73,4.73s.24,3.34.71,4.64c.47,1.3,1.12,2.38,1.95,3.23.83.85,1.81,1.48,2.92,1.91,1.11.42,2.32.64,3.6.64Zm-9.47-34.24h4.85l3.01,3.3,3.06-3.3h4.66l-5.42,5.98h-4.66l-5.51-5.98Z"/>
    <path class="cls-1" d="m225.39,17.48h6.69l10.97,29.67h-6.83l-2.31-6.83h-10.55l-2.31,6.83h-6.74l11.07-29.67Zm-.57,18.09h7.54l-1.37-3.96c-.44-1.22-.85-2.46-1.22-3.7-.38-1.24-.74-2.49-1.08-3.74h-.09c-.35,1.19-.72,2.41-1.13,3.65-.41,1.24-.83,2.5-1.27,3.79l-1.37,3.96Z"/>
    <path class="cls-1" d="m246.82,47.15v-29.67h6.45v12.48l10.22-12.48h8.01l-11.07,12.95,12.01,16.72h-7.96l-8.76-12.67-2.45,2.59v10.08h-6.45Z"/>
    <path class="cls-1" d="m284.03,17.48h6.69l10.97,29.67h-6.83l-2.31-6.83h-10.55l-2.31,6.83h-6.74l11.07-29.67Zm-.57,18.09h7.54l-1.37-3.96c-.44-1.22-.85-2.46-1.22-3.7-.38-1.24-.74-2.49-1.08-3.74h-.09c-.35,1.19-.72,2.41-1.13,3.65-.41,1.24-.83,2.5-1.27,3.79l-1.37,3.96Z"/>
    <path class="cls-1" d="m305.46,17.48h11.26c1.66,0,3.13.24,4.4.73,1.27.49,2.33,1.15,3.18,1.98.85.83,1.48,1.81,1.91,2.92.42,1.12.64,2.32.64,3.6,0,1.19-.18,2.25-.54,3.18-.36.93-.82,1.73-1.37,2.4-.55.68-1.16,1.24-1.84,1.7-.68.46-1.33.82-1.96,1.11l7.25,12.06h-7.39l-5.7-10.93h-3.44v10.93h-6.41v-29.67Zm6.41,13.8h2.54c1.7,0,3.08-.35,4.17-1.04,1.08-.69,1.63-1.84,1.63-3.44,0-1.41-.43-2.5-1.3-3.27-.86-.77-2.13-1.15-3.79-1.15h-3.25v8.9Z"/>
  </g>
  <g>
    <path class="cls-1" d="m22.08,42.67c1.44,0,2.67-.13,3.67-.38,1-.25,1.87-.6,2.59-1.04l1.32,4.71c-.75.44-1.82.83-3.2,1.18-1.38.35-3.06.52-5.04.52-2.23,0-4.29-.35-6.17-1.06-1.88-.71-3.51-1.73-4.88-3.06-1.37-1.33-2.43-2.95-3.18-4.85-.75-1.9-1.13-4.04-1.13-6.43s.37-4.43,1.11-6.31c.74-1.88,1.77-3.49,3.11-4.83,1.33-1.33,2.96-2.36,4.87-3.09,1.91-.72,4.05-1.08,6.41-1.08,2.01,0,3.67.19,4.97.57,1.3.38,2.36.79,3.18,1.22l-1.46,4.76c-.82-.44-1.72-.81-2.71-1.11-.99-.3-2.1-.45-3.32-.45-1.29,0-2.5.19-3.63.57-1.13.38-2.12.98-2.97,1.81-.85.83-1.52,1.9-2,3.2-.49,1.3-.73,2.88-.73,4.73s.24,3.34.71,4.64c.47,1.3,1.12,2.38,1.95,3.23.83.85,1.81,1.48,2.92,1.91,1.11.42,2.32.64,3.6.64Z"/>
    <path class="cls-1" d="m46.53,16.96c2.1,0,4.05.35,5.84,1.04,1.79.69,3.33,1.69,4.62,2.99,1.29,1.3,2.3,2.91,3.04,4.83.74,1.92,1.11,4.1,1.11,6.55s-.38,4.52-1.13,6.41c-.75,1.88-1.79,3.49-3.11,4.8-1.32,1.32-2.88,2.33-4.69,3.04-1.81.71-3.76,1.06-5.86,1.06s-4.05-.34-5.84-1.01-3.33-1.66-4.62-2.97c-1.29-1.3-2.3-2.9-3.04-4.8-.74-1.9-1.11-4.07-1.11-6.52s.38-4.53,1.13-6.43c.75-1.9,1.79-3.52,3.11-4.85,1.32-1.33,2.88-2.36,4.69-3.06,1.81-.71,3.76-1.06,5.86-1.06Zm-7.96,15.4c0,1.76.21,3.29.64,4.59.42,1.3,1,2.39,1.72,3.25.72.86,1.56,1.51,2.52,1.93.96.42,1.99.64,3.09.64s2.08-.21,3.04-.64c.96-.42,1.78-1.07,2.47-1.93.69-.86,1.24-1.95,1.65-3.25.41-1.3.61-2.83.61-4.59s-.21-3.39-.64-4.71c-.42-1.32-1-2.41-1.72-3.27-.72-.86-1.56-1.5-2.52-1.91-.96-.41-1.99-.61-3.09-.61s-2.12.22-3.06.66c-.94.44-1.76,1.09-2.45,1.95-.69.86-1.24,1.95-1.65,3.27-.41,1.32-.61,2.86-.61,4.62Z"/>
    <path class="cls-1" d="m65.69,17.48h6.45v24.59h11.96v5.09h-18.42v-29.67Z"/>
    <path class="cls-1" d="m87.73,17.48h19.31v4.99h-12.86v6.78h11.63v4.95h-11.63v7.96h13v4.99h-19.45v-29.67Z"/>
    <path class="cls-1" d="m112.08,17.48h6.45v24.59h11.96v5.09h-18.42v-29.67Z"/>
    <path class="cls-1" d="m134.12,17.48h6.45v24.59h11.96v5.09h-18.42v-29.67Z"/>
  </g>
  <path class="cls-2" d="m180.42,40.23c.53-.78,1.13-1.83,1.79-3.13.66-1.3,1.22-2.61,1.7-3.93l-4.66-1.88c-.28.94-.64,1.9-1.08,2.87-.44.97-.85,1.82-1.22,2.54l-7.49-7.68c-1.19-1.26-2.09-2.35-2.69-3.27-.6-.93-.89-1.91-.89-2.94,0-.88.25-1.6.75-2.17.5-.57,1.27-.85,2.31-.85.85,0,1.57.29,2.17.87.6.58.89,1.3.89,2.14s-.2,1.52-.59,2.12c-.39.6-.89,1.07-1.48,1.41l2.97,3.06c1.26-.63,2.34-1.49,3.25-2.59.91-1.1,1.37-2.43,1.37-4,0-1.04-.22-2-.66-2.9-.44-.9-1.04-1.66-1.79-2.28-.75-.63-1.65-1.12-2.68-1.48-1.04-.36-2.15-.54-3.34-.54-2.73,0-4.89.67-6.48,2-1.59,1.33-2.38,3.15-2.38,5.44,0,1.22.29,2.39.87,3.49.58,1.1,1.23,2.03,1.95,2.78-2.45,1.13-4.21,2.44-5.28,3.93-1.07,1.49-1.6,3.2-1.6,5.11,0,2.86.99,5.12,2.97,6.78,1.98,1.66,4.73,2.5,8.24,2.5,2.32,0,4.28-.36,5.86-1.08.76-.34,1.43-.71,2.03-1.1l-3.29-3.38c-.14.08-.28.16-.44.23-.96.47-2.1.71-3.41.71-1.79,0-3.23-.41-4.33-1.22-1.1-.82-1.65-2.04-1.65-3.67,0-1.41.37-2.55,1.11-3.41.74-.86,1.61-1.53,2.61-2l7.66,7.89,3.88,3.99,2.55,2.59h7.25l-6.74-6.92Z"/>
</svg>